<?xml version="1.0" encoding="UTF-8"?>
<svg version="1.1" xmlns="http://www.w3.org/2000/svg" width="278" height="350">
<path d="M0 0 C1.47905031 -0.00512655 1.47905031 -0.00512655 2.98798043 -0.01035666 C6.28322452 -0.01693131 9.57764927 0.00503436 12.87281799 0.0269165 C15.23835226 0.02804507 17.60388793 0.02741095 19.96942139 0.02514648 C26.38628044 0.02399877 32.80284045 0.04751788 39.21963 0.07544231 C45.24767916 0.09982548 51.27576154 0.10193579 57.3038509 0.10604981 C69.24063326 0.114796 81.17730604 0.14139317 93.11402893 0.17926025 C104.70679681 0.21599788 116.29953488 0.24430104 127.89234924 0.2612915 C128.96490905 0.26286784 128.96490905 0.26286784 130.05913674 0.26447603 C133.64641921 0.26969633 137.2337019 0.27475112 140.82098472 0.27972364 C170.56302664 0.32116463 200.30495143 0.39189275 230.04689026 0.48101807 C230.20086212 14.36293923 230.34882438 28.24491327 230.48985386 42.1269722 C230.55551226 48.57265737 230.62310427 55.01831029 230.69508362 61.46392822 C230.76445044 67.68192266 230.82877943 73.89995052 230.88958549 80.11803436 C230.91369889 82.49275359 230.93964105 84.86745497 230.96742439 87.24213409 C231.00596783 90.56294462 231.03806416 93.8837586 231.06861877 97.20465088 C231.0880378 98.68387276 231.0880378 98.68387276 231.10784912 100.19297791 C231.11840836 101.55169762 231.11840836 101.55169762 231.12918091 102.93786621 C231.14162511 104.11591764 231.14162511 104.11591764 231.15432072 105.3177681 C231.04689026 107.48101807 231.04689026 107.48101807 230.04689026 111.48101807 C218.49689026 111.48101807 206.94689026 111.48101807 195.04689026 111.48101807 C188.98296069 87.22529979 194.04689026 61.48324019 194.04689026 36.48101807 C137.28689026 36.48101807 80.52689026 36.48101807 22.04689026 36.48101807 C22.04689026 60.90101807 22.04689026 85.32101807 22.04689026 110.48101807 C21.04689026 111.48101807 21.04689026 111.48101807 17.72047424 111.59454346 C16.24463469 111.59438436 14.76878957 111.58869121 13.29298401 111.57867432 C12.51753738 111.57725937 11.74209076 111.57584442 10.94314575 111.5743866 C8.45685532 111.56877152 5.97065366 111.55621653 3.48439026 111.54351807 C1.80275093 111.53850501 0.1211102 111.53394176 -1.56053162 111.52984619 C-5.6914254 111.5187972 -9.8222525 111.50152251 -13.95310974 111.48101807 C-15.23576392 106.60258326 -15.04615537 101.82610326 -14.97483826 96.82550049 C-14.96523071 95.85916687 -14.95562317 94.89283325 -14.94572449 93.8972168 C-14.91280216 90.71023111 -14.87244399 87.5233854 -14.83201599 84.33648682 C-14.80770827 82.12403351 -14.78386504 79.91157506 -14.76046753 77.69911194 C-14.69769155 71.88103361 -14.62860648 66.06304663 -14.55821228 60.24505615 C-14.48747028 54.30617425 -14.42268842 48.36722768 -14.35740662 42.42828369 C-14.22847786 30.77912407 -14.0928846 19.13005225 -13.95310974 7.48101807 C-14.61310974 7.48101807 -15.27310974 7.48101807 -15.95310974 7.48101807 C-16.28310974 6.49101807 -16.61310974 5.50101807 -16.95310974 4.48101807 C-11.15422228 0.51169401 -6.94044434 -0.08852892 0 0 Z " fill="#3A3A3A" transform="translate(30.953109741210938,3.51898193359375)"/>
<path d="M0 0 C11.55 0 23.1 0 35 0 C39.11034 24.66203998 36 49.99777788 36 75 C93.09 75.33 150.18 75.66 209 76 C208.67 74.02 208.34 72.04 208 70 C207.91300735 67.99132904 207.87216999 65.98027979 207.87060547 63.96972656 C207.86745331 62.80121155 207.86430115 61.63269653 207.86105347 60.42877197 C207.86408981 58.55363922 207.86408981 58.55363922 207.8671875 56.640625 C207.86623077 55.34106873 207.86527405 54.04151245 207.86428833 52.70257568 C207.86281794 49.95567633 207.86494332 47.2088096 207.86962891 44.46191406 C207.87530321 40.96775818 207.87205763 37.47367952 207.86605644 33.97952652 C207.86153789 30.61655345 207.86471897 27.25360025 207.8671875 23.890625 C207.86516327 22.64863342 207.86313904 21.40664185 207.86105347 20.12701416 C207.87912588 13.35522799 208.15319166 6.72111119 209 0 C213.82380802 -0.0246519 218.64757967 -0.04283693 223.47143555 -0.05493164 C225.11369464 -0.05997174 226.75594923 -0.06680378 228.39819336 -0.07543945 C230.75375479 -0.08751926 233.10925709 -0.09323139 235.46484375 -0.09765625 C236.20339096 -0.10281754 236.94193817 -0.10797882 237.7028656 -0.11329651 C239.46898088 -0.1134925 241.23497146 -0.06194719 243 0 C244.55404052 1.55404052 244.14379755 3.04340432 244.16494751 5.20689392 C244.17618149 6.1141069 244.18741547 7.02131989 244.19898987 7.95602417 C244.20631638 8.95916656 244.21364288 9.96230896 244.22119141 10.99584961 C244.2326973 12.04616867 244.24420319 13.09648773 244.25605774 14.17863464 C244.29290621 17.6698407 244.32245265 21.16106519 244.3515625 24.65234375 C244.37466244 27.06751273 244.3980526 29.48267895 244.42172241 31.89784241 C244.47025691 36.96792278 244.51517716 42.03801936 244.55761719 47.1081543 C244.61242501 53.61991325 244.67624988 60.1315468 244.74279213 66.64319515 C244.79277819 71.63327474 244.83794149 76.62338898 244.88163376 81.6135273 C244.90325841 84.0150143 244.92641441 86.41648799 244.9510994 88.81794548 C244.98484439 92.17019495 245.01210246 95.5224349 245.03759766 98.87475586 C245.04897263 99.87587402 245.0603476 100.87699219 245.07206726 101.90844727 C245.07766159 102.81848007 245.08325592 103.72851288 245.08901978 104.66612244 C245.09951575 105.85605254 245.09951575 105.85605254 245.11022377 107.07002163 C245 109 245 109 244 111 C163.48 111 82.96 111 0 111 C0 74.37 0 37.74 0 0 Z " fill="#3A3A3A" transform="translate(17,234)"/>
<path d="M0 0 C15.51 0 31.02 0 47 0 C47 9.57 47 19.14 47 29 C41.06 29 35.12 29 29 29 C29 54.08 29 79.16 29 105 C19.43 105 9.86 105 0 105 C0 70.35 0 35.7 0 0 Z " fill="#3B3B3A" transform="translate(20,7)"/>
<path d="M0 0 C9.24 0 18.48 0 28 0 C29 1 29 1 29.12304783 2.74725437 C29.12166514 3.89626933 29.12166514 3.89626933 29.12025452 5.0684967 C29.12162918 5.94494339 29.12300385 6.82139008 29.12442017 7.72439575 C29.11902725 9.17771805 29.11902725 9.17771805 29.11352539 10.66040039 C29.11367142 11.67491776 29.11381744 12.68943512 29.1139679 13.73469543 C29.11326829 17.10570373 29.10547368 20.47665754 29.09765625 23.84765625 C29.09579224 26.17793243 29.09436826 28.508209 29.09336853 30.83848572 C29.08954202 36.98537265 29.0797106 43.13223613 29.06866455 49.27911377 C29.05665939 56.64707199 29.05204883 64.01503804 29.04621124 71.38300323 C29.03649891 82.58868516 29.01734328 93.79431557 29 105 C13.49 105 -2.02 105 -18 105 C-18 95.43 -18 85.86 -18 76 C-12.06 76 -6.12 76 0 76 C0 50.92 0 25.84 0 0 Z " fill="#3B3B3B" transform="translate(229,237)"/>
<path d="M0 0 C1.47905031 -0.00512655 1.47905031 -0.00512655 2.98798043 -0.01035666 C6.28322452 -0.01693131 9.57764927 0.00503436 12.87281799 0.0269165 C15.23835226 0.02804507 17.60388793 0.02741095 19.96942139 0.02514648 C26.38628044 0.02399877 32.80284045 0.04751788 39.21963 0.07544231 C45.24767916 0.09982548 51.27576154 0.10193579 57.3038509 0.10604981 C69.24063326 0.114796 81.17730604 0.14139317 93.11402893 0.17926025 C104.70679681 0.21599788 116.29953488 0.24430104 127.89234924 0.2612915 C128.96490905 0.26286784 128.96490905 0.26286784 130.05913674 0.26447603 C133.64641921 0.26969633 137.2337019 0.27475112 140.82098472 0.27972364 C170.56302664 0.32116463 200.30495143 0.39189275 230.04689026 0.48101807 C230.20086212 14.36293923 230.34882438 28.24491327 230.48985386 42.1269722 C230.55551226 48.57265737 230.62310427 55.01831029 230.69508362 61.46392822 C230.76445044 67.68192266 230.82877943 73.89995052 230.88958549 80.11803436 C230.91369889 82.49275359 230.93964105 84.86745497 230.96742439 87.24213409 C231.00596783 90.56294462 231.03806416 93.8837586 231.06861877 97.20465088 C231.0880378 98.68387276 231.0880378 98.68387276 231.10784912 100.19297791 C231.11840836 101.55169762 231.11840836 101.55169762 231.12918091 102.93786621 C231.14162511 104.11591764 231.14162511 104.11591764 231.15432072 105.3177681 C231.04689026 107.48101807 231.04689026 107.48101807 230.04689026 111.48101807 C218.49689026 111.48101807 206.94689026 111.48101807 195.04689026 111.48101807 C188.98296069 87.22529979 194.04689026 61.48324019 194.04689026 36.48101807 C137.28689026 36.48101807 80.52689026 36.48101807 22.04689026 36.48101807 C22.04689026 60.90101807 22.04689026 85.32101807 22.04689026 110.48101807 C21.04689026 111.48101807 21.04689026 111.48101807 17.72047424 111.59454346 C16.24463469 111.59438436 14.76878957 111.58869121 13.29298401 111.57867432 C12.51753738 111.57725937 11.74209076 111.57584442 10.94314575 111.5743866 C8.45685532 111.56877152 5.97065366 111.55621653 3.48439026 111.54351807 C1.80275093 111.53850501 0.1211102 111.53394176 -1.56053162 111.52984619 C-5.6914254 111.5187972 -9.8222525 111.50152251 -13.95310974 111.48101807 C-15.23576392 106.60258326 -15.04615537 101.82610326 -14.97483826 96.82550049 C-14.96523071 95.85916687 -14.95562317 94.89283325 -14.94572449 93.8972168 C-14.91280216 90.71023111 -14.87244399 87.5233854 -14.83201599 84.33648682 C-14.80770827 82.12403351 -14.78386504 79.91157506 -14.76046753 77.69911194 C-14.69769155 71.88103361 -14.62860648 66.06304663 -14.55821228 60.24505615 C-14.48747028 54.30617425 -14.42268842 48.36722768 -14.35740662 42.42828369 C-14.22847786 30.77912407 -14.0928846 19.13005225 -13.95310974 7.48101807 C-14.61310974 7.48101807 -15.27310974 7.48101807 -15.95310974 7.48101807 C-16.28310974 6.49101807 -16.61310974 5.50101807 -16.95310974 4.48101807 C-11.15422228 0.51169401 -6.94044434 -0.08852892 0 0 Z M-10.95310974 3.48101807 C-10.95310974 38.13101807 -10.95310974 72.78101807 -10.95310974 108.48101807 C-1.38310974 108.48101807 8.18689026 108.48101807 18.04689026 108.48101807 C18.04689026 83.40101807 18.04689026 58.32101807 18.04689026 32.48101807 C23.98689026 32.48101807 29.92689026 32.48101807 36.04689026 32.48101807 C36.04689026 22.91101807 36.04689026 13.34101807 36.04689026 3.48101807 C20.53689026 3.48101807 5.02689026 3.48101807 -10.95310974 3.48101807 Z M39.04689026 3.48101807 C39.04689026 13.05101807 39.04689026 22.62101807 39.04689026 32.48101807 C91.51689026 32.48101807 143.98689026 32.48101807 198.04689026 32.48101807 C198.04689026 57.56101807 198.04689026 82.64101807 198.04689026 108.48101807 C207.61689026 108.48101807 217.18689026 108.48101807 227.04689026 108.48101807 C227.04689026 73.83101807 227.04689026 39.18101807 227.04689026 3.48101807 C165.00689026 3.48101807 102.96689026 3.48101807 39.04689026 3.48101807 Z " fill="#040102" transform="translate(30.953109741210938,3.51898193359375)"/>
<path d="M0 0 C11.55 0 23.1 0 35 0 C39.11034 24.66203998 36 49.99777788 36 75 C93.09 75.33 150.18 75.66 209 76 C208.67 74.02 208.34 72.04 208 70 C207.91300735 67.99132904 207.87216999 65.98027979 207.87060547 63.96972656 C207.86745331 62.80121155 207.86430115 61.63269653 207.86105347 60.42877197 C207.86408981 58.55363922 207.86408981 58.55363922 207.8671875 56.640625 C207.86623077 55.34106873 207.86527405 54.04151245 207.86428833 52.70257568 C207.86281794 49.95567633 207.86494332 47.2088096 207.86962891 44.46191406 C207.87530321 40.96775818 207.87205763 37.47367952 207.86605644 33.97952652 C207.86153789 30.61655345 207.86471897 27.25360025 207.8671875 23.890625 C207.86516327 22.64863342 207.86313904 21.40664185 207.86105347 20.12701416 C207.87912588 13.35522799 208.15319166 6.72111119 209 0 C213.82380802 -0.0246519 218.64757967 -0.04283693 223.47143555 -0.05493164 C225.11369464 -0.05997174 226.75594923 -0.06680378 228.39819336 -0.07543945 C230.75375479 -0.08751926 233.10925709 -0.09323139 235.46484375 -0.09765625 C236.20339096 -0.10281754 236.94193817 -0.10797882 237.7028656 -0.11329651 C239.46898088 -0.1134925 241.23497146 -0.06194719 243 0 C244.55404052 1.55404052 244.14379755 3.04340432 244.16494751 5.20689392 C244.17618149 6.1141069 244.18741547 7.02131989 244.19898987 7.95602417 C244.20631638 8.95916656 244.21364288 9.96230896 244.22119141 10.99584961 C244.2326973 12.04616867 244.24420319 13.09648773 244.25605774 14.17863464 C244.29290621 17.6698407 244.32245265 21.16106519 244.3515625 24.65234375 C244.37466244 27.06751273 244.3980526 29.48267895 244.42172241 31.89784241 C244.47025691 36.96792278 244.51517716 42.03801936 244.55761719 47.1081543 C244.61242501 53.61991325 244.67624988 60.1315468 244.74279213 66.64319515 C244.79277819 71.63327474 244.83794149 76.62338898 244.88163376 81.6135273 C244.90325841 84.0150143 244.92641441 86.41648799 244.9510994 88.81794548 C244.98484439 92.17019495 245.01210246 95.5224349 245.03759766 98.87475586 C245.04897263 99.87587402 245.0603476 100.87699219 245.07206726 101.90844727 C245.07766159 102.81848007 245.08325592 103.72851288 245.08901978 104.66612244 C245.09951575 105.85605254 245.09951575 105.85605254 245.11022377 107.07002163 C245 109 245 109 244 111 C163.48 111 82.96 111 0 111 C0 74.37 0 37.74 0 0 Z M3 4 C3 38.32 3 72.64 3 108 C65.04 108 127.08 108 191 108 C191 98.43 191 88.86 191 79 C138.53 79 86.06 79 32 79 C32 53.92 32 28.84 32 3 C16.98942814 1.33718291 16.98942814 1.33718291 3 4 Z M212 3 C212 28.08 212 53.16 212 79 C206.06 79 200.12 79 194 79 C194 88.57 194 98.14 194 108 C209.51 108 225.02 108 241 108 C241.02906246 89.5400406 241.02906246 89.5400406 241.04882812 71.08007812 C241.05481722 63.55638936 241.06191927 56.0327127 241.07543945 48.5090332 C241.08626614 42.44662277 241.09227637 36.38422531 241.09487724 30.32180595 C241.09673189 28.00323723 241.10035325 25.68466926 241.10573006 23.36610603 C241.11293758 20.13085492 241.11399106 16.89565817 241.11352539 13.66040039 C241.1189183 12.20707809 241.1189183 12.20707809 241.12442017 10.72439575 C241.1230455 9.84794907 241.12167084 8.97150238 241.12025452 8.0684967 C241.12117631 7.30248673 241.1220981 6.53647676 241.12304783 5.74725437 C241.18986791 3.97130594 241.18986791 3.97130594 240 3 C230.76 3 221.52 3 212 3 Z " fill="#020101" transform="translate(17,234)"/>
<path d="M0 0 C7.6432605 5.68216077 11.85233908 12.03222508 13.5 21.453125 C14.07741108 31.28223639 11.08626887 39.1827698 4.640625 46.58984375 C-1.41715066 52.36896173 -7.70894953 54.53903677 -16 54.828125 C-24.89153039 54.53050055 -32.06583998 51.66251087 -38.5 45.453125 C-44.20238917 38.59289031 -46.2747118 30.28483957 -45.5 21.453125 C-44.10419459 13.29941026 -40.49524629 7.14558107 -34.5 1.453125 C-23.8023629 -5.63527891 -11.17743677 -6.916039 0 0 Z " fill="#3A3A3A" transform="translate(155.5,230.546875)"/>
<path d="M0 0 C1.7890625 1.109375 1.7890625 1.109375 3.625 2.5 C4.39585937 3.08265625 5.16671875 3.6653125 5.9609375 4.265625 C12.8603317 9.93697169 16.38412674 15.03531108 17.5 23.9375 C18.02612972 34.00319221 15.19750946 41.74012113 8.625 49.5 C-0.01848898 56.19215587 -7.62883359 57.17908147 -18.375 56.5 C-23.09443575 55.44068393 -27.44846693 53.32219565 -31.375 50.5 C-31.375 49.84 -31.375 49.18 -31.375 48.5 C-32.035 48.5 -32.695 48.5 -33.375 48.5 C-33.375 47.84 -33.375 47.18 -33.375 46.5 C-34.035 46.5 -34.695 46.5 -35.375 46.5 C-36.19511312 44.94148245 -37.00576213 43.37798284 -37.8125 41.8125 C-38.26496094 40.94238281 -38.71742187 40.07226562 -39.18359375 39.17578125 C-42.31146211 32.15089657 -42.14681739 25.20246649 -39.8125 18 C-36.41418054 9.3420907 -30.5054769 3.47365839 -22.15234375 -0.578125 C-15.70417185 -2.71844647 -6.28770075 -2.87074822 0 0 Z " fill="#3A3A3A" transform="translate(151.375,66.5)"/>
<path d="M0 0 C3.16903371 -0.29402661 6.14248931 -0.39075261 9.31387329 -0.36076355 C10.29155115 -0.36332682 11.26922902 -0.3658901 12.27653348 -0.36853105 C15.57335473 -0.3734974 18.86972441 -0.35692899 22.16650391 -0.34057617 C24.52144866 -0.33973052 26.87639421 -0.34020384 29.2313385 -0.34190369 C35.64224132 -0.34276746 42.0529771 -0.32507986 48.46384096 -0.30418181 C54.47946213 -0.28594782 60.49510317 -0.28431559 66.51074712 -0.2812262 C78.42809482 -0.27465583 90.34538102 -0.25467886 102.26269531 -0.22631836 C113.8411427 -0.19879289 125.41957339 -0.17755192 136.99804688 -0.16479492 C138.06809662 -0.16361267 138.06809662 -0.16361267 139.15976353 -0.16240653 C142.73841519 -0.15849149 146.31706696 -0.15470035 149.89571881 -0.15097082 C179.59718667 -0.11985671 209.29859042 -0.06678247 239 0 C239.06948809 7.77116308 239.12280502 15.54225348 239.15543652 23.31364918 C239.1710975 26.92218303 239.19234315 30.53050444 239.22631836 34.13891602 C239.25889717 37.62078122 239.27684975 41.10244201 239.28463173 44.58444786 C239.29287856 46.56042097 239.31630038 48.53631175 239.33988953 50.51216125 C239.34022942 52.31368904 239.34022942 52.31368904 239.34057617 54.15161133 C239.35056892 55.74045891 239.35056892 55.74045891 239.36076355 57.36140442 C239 60 239 60 236 63 C236 43.2 236 23.4 236 3 C173.63 3 111.26 3 47 3 C47 11.25 47 19.5 47 28 C46.01 28.495 46.01 28.495 45 29 C45 20.42 45 11.84 45 3 C29.49 3 13.98 3 -2 3 C-1.34 2.01 -0.68 1.02 0 0 Z " fill="#010001" transform="translate(22,4)"/>
<path d="M0 0 C0 34.98 0 69.96 0 106 C9.57 106 19.14 106 29 106 C29 80.92 29 55.84 29 30 C30.65 30 32.3 30 34 30 C34 30.66 34 31.32 34 32 C38.29 32 42.58 32 47 32 C46.505 32.99 46.505 32.99 46 34 C41.71 34 37.42 34 33 34 C33.00222061 34.92485703 33.00444122 35.84971405 33.00672913 36.80259705 C33.02672913 45.49952587 33.04197264 54.19644702 33.05181217 62.89339352 C33.05704074 67.36505549 33.06413789 71.83669853 33.07543945 76.30834961 C33.08626929 80.62011973 33.09227704 84.93187159 33.09487724 89.24365425 C33.09673132 90.89236298 33.1003516 92.54107066 33.10573006 94.18977165 C33.11294178 96.49103872 33.11399089 98.7922294 33.11352539 101.09350586 C33.115746 102.4058873 33.11796661 103.71826874 33.12025452 105.07041931 C33 108 33 108 32 109 C29.40640678 109.08851529 26.83960309 109.11525945 24.24609375 109.09765625 C23.47064713 109.0962413 22.6952005 109.09482635 21.89625549 109.09336853 C19.40996506 109.08775345 16.9237634 109.07519846 14.4375 109.0625 C12.75586067 109.05748694 11.07421994 109.0529237 9.39257812 109.04882812 C5.26168434 109.03777913 1.13085724 109.02050445 -3 109 C-4.28265418 104.12156519 -4.09304563 99.34508519 -4.02172852 94.34448242 C-4.01212097 93.3781488 -4.00251343 92.41181519 -3.99261475 91.41619873 C-3.95969242 88.22921304 -3.91933425 85.04236733 -3.87890625 81.85546875 C-3.85459853 79.64301544 -3.8307553 77.43055699 -3.80735779 75.21809387 C-3.74458181 69.40001554 -3.67549673 63.58202856 -3.60510254 57.76403809 C-3.53436054 51.82515619 -3.46957868 45.88620961 -3.40429688 39.94726562 C-3.27536812 28.298106 -3.13977486 16.64903418 -3 5 C-3.66 5 -4.32 5 -5 5 C-5.33 4.01 -5.66 3.02 -6 2 C-3 0 -3 0 0 0 Z " fill="#0E0809" transform="translate(20,6)"/>
<path d="M0 0 C2.54232342 -0.08152344 5.08199202 -0.14073716 7.625 -0.1875 C8.33785156 -0.21263672 9.05070312 -0.23777344 9.78515625 -0.26367188 C17.51311261 -0.3700199 22.38698051 2.753047 28 8 C33.23839926 14.43574766 35.36155545 21.70279463 35.0625 29.9375 C33.94495101 39.18700121 29.42064067 46.86700822 22.125 52.62890625 C14.65812398 57.44668839 6.21458796 58.20476665 -2.41796875 56.53125 C-10.51768751 54.18916265 -16.86441793 49.49909934 -21.03515625 42.140625 C-24.7690627 33.85649247 -24.90845401 25.24800518 -22.19921875 16.64453125 C-20.00297632 11.80135169 -16.52452253 7.93474012 -13 4 C-11.68 4.33 -10.36 4.66 -9 5 C-10 8 -10 8 -12.3125 10.1875 C-17.60991693 15.73130842 -19.26054465 20.27962919 -19.5 28 C-19.21387743 36.37802637 -17.30019558 41.0719601 -11.25 46.8125 C-6.37216902 50.77630328 -1.85174514 52.68313943 4.375 53.375 C13.28593617 52.45317902 20.09613164 49.96493226 26 43 C30.62569025 36.30973614 30.99004189 28.91033471 30 21 C27.92142377 14.0751177 23.04990058 8.84993673 17 5 C11.54982435 2.60723996 5.86682995 2.39668957 0 2 C0 1.34 0 0.68 0 0 Z " fill="#130F10" transform="translate(134,228)"/>
<path d="M0 0 C11.55 0 23.1 0 35 0 C35.76764693 4.60588161 36.12195832 8.4107565 36.11352539 13.01513672 C36.11367142 13.68900925 36.11381744 14.36288177 36.1139679 15.05717468 C36.11327621 17.26471273 36.10551897 19.47216436 36.09765625 21.6796875 C36.09578942 23.21810866 36.09436677 24.75653042 36.09336853 26.29495239 C36.08956419 30.32924055 36.07975184 34.36349227 36.06866455 38.39776611 C36.0584055 42.52038073 36.05386131 46.64300128 36.04882812 50.765625 C36.03812757 58.84376852 36.02054778 66.92187552 36 75 C42.93 75.495 42.93 75.495 50 76 C50 76.33 50 76.66 50 77 C49.21753906 77.06058594 48.43507812 77.12117188 47.62890625 77.18359375 C46.61699219 77.26738281 45.60507812 77.35117187 44.5625 77.4375 C43.55316406 77.51871094 42.54382812 77.59992188 41.50390625 77.68359375 C39.06359221 77.73211468 39.06359221 77.73211468 38 79 C36.02 79 34.04 79 32 79 C32 53.92 32 28.84 32 3 C16.74628037 2.60082051 16.74628037 2.60082051 2 5 C2 39.32 2 73.64 2 109 C1.01 109.495 1.01 109.495 0 110 C0 73.7 0 37.4 0 0 Z " fill="#0A0607" transform="translate(17,234)"/>
<path d="M0 0 C0.66 0 1.32 0 2 0 C2 25.08 2 50.16 2 76 C11.57 76 21.14 76 31 76 C30.96519531 72.78636719 30.93039062 69.57273437 30.89453125 66.26171875 C30.87114441 63.15406178 30.85292283 60.04641455 30.83520508 56.9387207 C30.82010556 54.77656679 30.79962429 52.61444357 30.77368164 50.45239258 C30.73734983 47.347091 30.72028538 44.24219386 30.70703125 41.13671875 C30.69154739 40.16788254 30.67606354 39.19904633 30.66011047 38.20085144 C30.65988388 37.3001442 30.65965729 36.39943695 30.65942383 35.47143555 C30.65276199 34.67867722 30.64610016 33.88591888 30.63923645 33.06913757 C31.08575196 30.50817482 32.02831853 29.62743222 34 28 C34.16835946 34.62010775 34.32822481 41.2403815 34.48217773 47.86083984 C34.53555731 50.11316577 34.59088348 52.36544643 34.64819336 54.61767578 C34.73021682 57.85439292 34.8052457 61.09120808 34.87890625 64.328125 C34.90594131 65.33554749 34.93297638 66.34296997 34.96083069 67.38092041 C34.98092697 68.32159363 35.00102325 69.26226685 35.02172852 70.23144531 C35.04171402 71.05751282 35.06169952 71.88358032 35.08229065 72.73468018 C35 75 35 75 34 79 C22.45 79 10.9 79 -1 79 C-1.9771115 75.091554 -2.12063644 72.03895161 -2.11352539 68.02832031 C-2.11367142 67.3352327 -2.11381744 66.64214508 -2.1139679 65.92805481 C-2.11327307 63.64471267 -2.10550085 61.36145283 -2.09765625 59.078125 C-2.09579054 57.49200485 -2.09436736 55.90588412 -2.09336853 54.31976318 C-2.08955538 50.15063885 -2.07973537 45.9815495 -2.06866455 41.81243896 C-2.05842457 37.55595371 -2.05386537 33.29946278 -2.04882812 29.04296875 C-2.03811201 20.69529468 -2.02052495 12.34765573 -2 4 C-6.29 3.67 -10.58 3.34 -15 3 C-15 2.67 -15 2.34 -15 2 C-14.00097656 1.93941406 -13.00195312 1.87882812 -11.97265625 1.81640625 C-10.68230469 1.73261719 -9.39195312 1.64882813 -8.0625 1.5625 C-6.77472656 1.48128906 -5.48695313 1.40007813 -4.16015625 1.31640625 C-1.13976043 1.35080812 -1.13976043 1.35080812 0 0 Z " fill="#0A0608" transform="translate(227,36)"/>
<path d="M0 0 C0.99 0.33 1.98 0.66 3 1 C1.76210371 4.71368887 0.14775123 5.77354181 -3 8 C-3.66 8 -4.32 8 -5 8 C-5.68774405 9.32258472 -6.34711373 10.65986503 -7 12 C-7.53625 12.94875 -8.0725 13.8975 -8.625 14.875 C-11.25060289 21.10912378 -11.13553748 29.08056417 -9.2734375 35.5078125 C-6.00158788 42.50371861 -0.73662729 46.57044429 6 50 C12.32207928 51.92576363 18.93933473 51.70692222 25.01953125 49.09765625 C31.24599232 45.64669854 35.70245955 41.19934899 38.33203125 34.55078125 C39.3825693 30.53907746 39.59087351 26.53954554 39.7265625 22.40625 C39.86191406 21.21515625 39.86191406 21.21515625 40 20 C40.66 19.67 41.32 19.34 42 19 C45.1869878 23.78048169 44.0408113 28.51572506 43 34 C39.50935482 43.45600148 34.55836596 49.49814059 25.4296875 53.828125 C18.31940041 56.25760806 10.54747282 56.17799895 3.4375 53.6875 C-2.60598504 50.72069825 -2.60598504 50.72069825 -5 49 C-5 48.34 -5 47.68 -5 47 C-5.66 47 -6.32 47 -7 47 C-7 46.34 -7 45.68 -7 45 C-7.66 45 -8.32 45 -9 45 C-9.82011312 43.44148245 -10.63076213 41.87798284 -11.4375 40.3125 C-11.88996094 39.44238281 -12.34242187 38.57226562 -12.80859375 37.67578125 C-15.93646211 30.65089657 -15.77181739 23.70246649 -13.4375 16.5 C-10.78226761 9.69655759 -6.26469967 3.87814742 0 0 Z " fill="#130F10" transform="translate(125,68)"/>
<path d="M0 0 C11.22 0 22.44 0 34 0 C34 1.32 34 2.64 34 4 C23.66129172 4 13.33212102 3.36900432 3 3 C3 26.1 3 49.2 3 73 C1.68 73 0.36 73 -1 73 C-1.02327969 64.95853096 -1.04099415 56.91707626 -1.05181217 48.87558174 C-1.05700706 45.1406751 -1.06404225 41.40579171 -1.07543945 37.67089844 C-1.08638997 34.05934296 -1.09230233 30.44780968 -1.09487724 26.83623886 C-1.09670975 25.46570359 -1.10028764 24.09516939 -1.10573006 22.72464371 C-1.11310243 20.78926045 -1.11340942 18.85385433 -1.11352539 16.91845703 C-1.115746 15.82147491 -1.11796661 14.7244928 -1.12025452 13.5942688 C-0.96821652 9.05002856 -0.45242181 4.5242181 0 0 Z " fill="#050202" transform="translate(226,234)"/>
<path d="M0 0 C0.69931641 -0.01160156 1.39863281 -0.02320312 2.11914062 -0.03515625 C9.1869883 0.00451362 13.7375315 2.64123557 18.9375 7.375 C20.07445312 8.3959375 20.07445312 8.3959375 21.234375 9.4375 C23.9732495 12.1544635 25.15891895 13.64618321 25.3125 17.5625 C25.27125 18.490625 25.23 19.41875 25.1875 20.375 C24.1975 20.87 24.1975 20.87 23.1875 21.375 C22.6925 20.199375 22.1975 19.02375 21.6875 17.8125 C18.63322581 11.74696957 13.7420877 7.27533641 7.5625 4.4375 C1.69690802 2.50585927 -4.72449067 3.14413448 -10.8125 3.375 C-8.10061393 -0.58288778 -4.35346546 -0.07104477 0 0 Z " fill="#141011" transform="translate(140.8125,65.625)"/>
<path d="M0 0 C11.22 0 22.44 0 34 0 C34 1.32 34 2.64 34 4 C30.85464051 4 27.72539339 3.89503686 24.58203125 3.78125 C23.32841797 3.73613281 22.07480469 3.69101563 20.78320312 3.64453125 C19.47287109 3.59683594 18.16253906 3.54914063 16.8125 3.5 C15.47721532 3.45177374 14.14192888 3.40359609 12.80664062 3.35546875 C9.5377428 3.237458 6.26886382 3.1189483 3 3 C2.67 4.32 2.34 5.64 2 7 C1.34 7 0.68 7 0 7 C0 4.69 0 2.38 0 0 Z " fill="#141011" transform="translate(226,234)"/>
<path d="M0 0 C0.66 1.32 1.32 2.64 2 4 C2.66 3.01 3.32 2.02 4 1 C4.08636719 1.845625 4.17273438 2.69125 4.26171875 3.5625 C5.14038506 10.65631977 6.18516398 16.50614864 11 22 C11.66 22.33 12.32 22.66 13 23 C13 24.65 13 26.3 13 28 C12.01 27.67 11.02 27.34 10 27 C10 26.34 10 25.68 10 25 C9.34 25 8.68 25 8 25 C8 24.34 8 23.68 8 23 C7.34 23 6.68 23 6 23 C5.17988688 21.44148245 4.36923787 19.87798284 3.5625 18.3125 C3.11003906 17.44238281 2.65757813 16.57226562 2.19140625 15.67578125 C-0.14676032 10.42448912 -0.09566837 5.64443356 0 0 Z " fill="#161213" transform="translate(110,90)"/>
<path d="M0 0 C0 0.33 0 0.66 0 1 C-4.62 1 -9.24 1 -14 1 C-14 1.99 -14 2.98 -14 4 C-14.83144531 4.30744141 -14.83144531 4.30744141 -15.6796875 4.62109375 C-16.40414062 4.89050781 -17.12859375 5.15992188 -17.875 5.4375 C-18.95394531 5.83775391 -18.95394531 5.83775391 -20.0546875 6.24609375 C-22.03648845 6.97916854 -22.03648845 6.97916854 -24 8 C-24.33 6.68 -24.66 5.36 -25 4 C-16.61163359 -0.47518307 -9.55718241 -2.31689271 0 0 Z " fill="#302729" transform="translate(148,227)"/>
<path d="M0 0 C1.51953125 1.11328125 1.51953125 1.11328125 3 3 C3.07421875 5.91796875 3.07421875 5.91796875 2.6875 9.1875 C2.56761719 10.27417969 2.44773438 11.36085938 2.32421875 12.48046875 C2.21722656 13.31191406 2.11023438 14.14335938 2 15 C1.01 15.33 0.02 15.66 -1 16 C-1.02685095 13.52076199 -1.04676547 11.0418116 -1.0625 8.5625 C-1.07506836 7.50192383 -1.07506836 7.50192383 -1.08789062 6.41992188 C-1.09653588 4.61306441 -1.05220011 2.80612397 -1 1 C-0.67 0.67 -0.34 0.34 0 0 Z " fill="#0E0C0C" transform="translate(166,87)"/>
<path d="M0 0 C0.99 0 1.98 0 3 0 C3.33 1.32 3.66 2.64 4 4 C10.93 4.495 10.93 4.495 18 5 C18 5.33 18 5.66 18 6 C17.21753906 6.06058594 16.43507813 6.12117188 15.62890625 6.18359375 C14.11103516 6.30927734 14.11103516 6.30927734 12.5625 6.4375 C11.55316406 6.51871094 10.54382813 6.59992188 9.50390625 6.68359375 C7.06359221 6.73211468 7.06359221 6.73211468 6 8 C4.00041636 8.04080783 1.99954746 8.04254356 0 8 C0 5.36 0 2.72 0 0 Z " fill="#100D0E" transform="translate(49,305)"/>
<path d="M0 0 C0.33 0 0.66 0 1 0 C1.33820166 1.5823006 1.67035939 3.16589375 2 4.75 C2.185625 5.63171875 2.37125 6.5134375 2.5625 7.421875 C3 10 3 10 3 14 C2.34 14 1.68 14 1 14 C-1.18841354 10.71737969 -1.24854665 9.68209102 -1.1875 5.875 C-1.18105469 4.98554688 -1.17460938 4.09609375 -1.16796875 3.1796875 C-1 1 -1 1 0 0 Z " fill="#070505" transform="translate(112,253)"/>
<path d="M0 0 C1.89685547 0.05220703 1.89685547 0.05220703 3.83203125 0.10546875 C5.74048828 0.14607422 5.74048828 0.14607422 7.6875 0.1875 C9.15123047 0.23970703 9.15123047 0.23970703 10.64453125 0.29296875 C10.31453125 1.28296875 9.98453125 2.27296875 9.64453125 3.29296875 C4.36453125 3.29296875 -0.91546875 3.29296875 -6.35546875 3.29296875 C-3.35546875 0.29296875 -3.35546875 0.29296875 0 0 Z " fill="#050102" transform="translate(136.35546875,65.70703125)"/>
<path d="M0 0 C0.99 0.66 1.98 1.32 3 2 C2.49701212 6.40114397 0.91227269 8.71195019 -2 12 C-2.17835515 7.45194365 -1.99785435 4.1205746 0 0 Z " fill="#191617" transform="translate(164,100)"/>
<path d="M0 0 C1.03930664 0.01353516 1.03930664 0.01353516 2.09960938 0.02734375 C3.79572395 0.05073843 5.49165871 0.08660359 7.1875 0.125 C7.1875 0.455 7.1875 0.785 7.1875 1.125 C6.20007813 1.17398438 5.21265625 1.22296875 4.1953125 1.2734375 C2.91398438 1.34820312 1.63265625 1.42296875 0.3125 1.5 C-1.60175781 1.60441406 -1.60175781 1.60441406 -3.5546875 1.7109375 C-6.89311699 1.79741106 -6.89311699 1.79741106 -8.8125 4.125 C-10.12997324 4.82248583 -11.46164193 5.49459957 -12.8125 6.125 C-12.8125 4.805 -12.8125 3.485 -12.8125 2.125 C-8.53365394 0.0146565 -4.67385858 -0.11628739 0 0 Z " fill="#2E2A2B" transform="translate(139.8125,64.875)"/>
<path d="M0 0 C2.475 0.99 2.475 0.99 5 2 C5 3.98 5 5.96 5 8 C4.01 8.495 4.01 8.495 3 9 C0 3.375 0 3.375 0 0 Z " fill="#0D0B0B" transform="translate(161,78)"/>
<path d="M0 0 C2 1.1875 2 1.1875 4 3 C4.25 5.6875 4.25 5.6875 4 8 C3.01 7.67 2.02 7.34 1 7 C1 6.34 1 5.68 1 5 C0.34 5 -0.32 5 -1 5 C-1 4.34 -1 3.68 -1 3 C-1.66 3 -2.32 3 -3 3 C-2 1 -2 1 0 0 Z " fill="#201C1D" transform="translate(119,110)"/>
<path d="M0 0 C0.66 0.33 1.32 0.66 2 1 C0.75122171 4.74633486 -1.06047445 6.41041797 -4 9 C-4.99 9 -5.98 9 -7 9 C-6.57847656 8.51789063 -6.15695313 8.03578125 -5.72265625 7.5390625 C-5.17480469 6.90742188 -4.62695312 6.27578125 -4.0625 5.625 C-3.51722656 4.99851563 -2.97195312 4.37203125 -2.41015625 3.7265625 C-0.93041376 2.04367666 -0.93041376 2.04367666 0 0 Z " fill="#070203" transform="translate(123,232)"/>
<path d="M0 0 C2.31 0.66 4.62 1.32 7 2 C6.01 2.33 5.02 2.66 4 3 C3.67 3.66 3.34 4.32 3 5 C1.68 4.34 0.36 3.68 -1 3 C-0.67 2.01 -0.34 1.02 0 0 Z " fill="#1B1718" transform="translate(147,66)"/>
</svg>
