<svg width="497" height="257" viewBox="0 0 497 257" fill="none" xmlns="http://www.w3.org/2000/svg">
<path d="M387.329 57.2338C390.193 59.8776 391.169 61.6904 392.267 65.4213C392.532 81.6294 379.58 95.8427 369.329 107.234C368.15 108.578 368.15 108.578 366.946 109.949C359.716 118.124 352.113 126.683 343.329 133.234C342.669 133.234 342.009 133.234 341.329 133.234C341.329 133.894 341.329 134.554 341.329 135.234C339.776 136.606 338.16 137.909 336.517 139.171C333.618 141.409 330.872 143.6 328.329 146.234C324.663 149.234 324.663 149.234 322.329 149.234C322.329 149.894 322.329 150.554 322.329 151.234C320.345 152.863 320.345 152.863 317.579 154.796C313.462 157.711 309.404 160.676 305.392 163.734C299.523 168.147 293.469 172.21 287.329 176.234C284.722 177.958 282.119 179.689 279.517 181.421C278.907 181.825 278.296 182.229 277.668 182.646C274.636 184.661 271.649 186.715 268.704 188.855C265.949 190.836 263.152 192.531 260.142 194.109C256.165 196.227 252.265 198.432 248.392 200.734C244.515 203.013 240.617 205.131 236.579 207.109C231.794 209.455 227.149 211.979 222.517 214.609C221.127 215.393 219.738 216.177 218.349 216.96C215.903 218.341 213.463 219.732 211.028 221.132C186.495 234.797 147.303 256.266 118.646 248.507C115.695 247.175 113.539 245.457 111.329 243.109C108.358 234.567 110.812 226.249 114.329 218.234C120.575 206.57 129.512 196.028 138.329 186.234C139.56 184.818 140.789 183.402 142.017 181.984C147.014 176.292 147.014 176.292 149.329 174.234C149.989 174.234 150.649 174.234 151.329 174.234C151.595 173.638 151.861 173.041 152.135 172.427C153.353 170.19 154.614 168.887 156.442 167.14C160.398 162.624 159.895 158.473 159.517 152.734C158.789 129.449 166.637 109.122 180.849 90.7807C181.337 90.2702 181.826 89.7597 182.329 89.2338C182.989 89.2338 183.649 89.2338 184.329 89.2338C184.659 88.2438 184.989 87.2538 185.329 86.2338C203.963 68.2765 228.434 60.6632 253.821 60.9525C276.879 61.528 298.186 70.6254 314.329 87.2338C316.817 90.0471 319.16 92.9489 321.454 95.9213C322.253 96.9535 322.253 96.9535 323.067 98.0065C331.629 109.562 331.629 109.562 331.079 116.296C330.708 117.255 330.708 117.255 330.329 118.234C329.669 118.234 329.009 118.234 328.329 118.234C328.329 117.244 328.329 116.254 328.329 115.234C327.731 115.189 327.133 115.144 326.517 115.097C323.208 113.791 322.745 111.603 321.329 108.421C319.436 104.197 317.659 101.428 314.329 98.2338C314.329 97.5738 314.329 96.9138 314.329 96.2338C313.757 95.9837 313.184 95.7336 312.595 95.476C310.018 94.0631 308.205 92.3848 306.079 90.3588C302.059 86.6921 298.301 84.4035 293.329 82.2338C293.329 81.5738 293.329 80.9138 293.329 80.2338C290.334 79.2184 287.335 78.2191 284.329 77.2338C283.27 76.8857 282.21 76.5377 281.118 76.1791C263.028 70.4019 244.653 70.6616 227.329 79.2338C225.144 80.5215 223.02 81.854 220.923 83.2807C219.329 84.2338 219.329 84.2338 217.329 84.2338C217.329 84.8938 217.329 85.5538 217.329 86.2338C215.79 87.7143 215.79 87.7143 213.704 89.4213C199.192 101.838 192.603 118.381 191.091 137.199C190.789 149.294 193.318 165.528 200.95 175.312C202.329 177.234 202.329 177.234 202.329 180.234C202.989 180.234 203.649 180.234 204.329 180.234C205.556 181.738 205.556 181.738 206.954 183.796C209.222 186.889 211.565 189.695 214.329 192.359C214.948 192.959 215.567 193.56 216.204 194.179C218.361 195.522 218.361 195.522 221.079 194.667C224.916 192.975 228.633 191.148 232.329 189.171C233.076 188.774 233.823 188.376 234.593 187.966C241.141 184.428 247.355 180.487 253.559 176.384C256.006 174.794 258.496 173.277 260.985 171.754C273.675 163.97 285.994 155.486 297.718 146.309C299.329 145.234 299.329 145.234 301.329 145.234C301.329 144.574 301.329 143.914 301.329 143.234C302.883 141.981 304.501 140.807 306.142 139.671C316.941 131.989 326.721 123.329 336.329 114.234C337.033 113.573 337.737 112.911 338.462 112.23C346.496 104.466 357.072 93.0927 357.454 81.4213C357.413 80.3694 357.372 79.3175 357.329 78.2338C348.59 73.8641 336.317 78.5311 327.614 81.0424C318.53 83.6341 318.53 83.6341 314.329 82.2338C314.329 81.2438 314.329 80.2538 314.329 79.2338C313.669 79.2338 313.009 79.2338 312.329 79.2338C312.329 78.5738 312.329 77.9138 312.329 77.2338C311.339 76.9038 310.349 76.5738 309.329 76.2338C309.872 74.4408 309.872 74.4408 311.329 72.2338C313.78 70.9405 316.069 69.9062 318.642 68.9213C319.392 68.6257 320.141 68.3301 320.914 68.0255C323.377 67.0703 325.85 66.1468 328.329 65.2338C329.584 64.7702 329.584 64.7702 330.864 64.2973C340.439 60.8147 350.03 57.8454 360.017 55.7963C361.2 55.5504 361.2 55.5504 362.407 55.2995C370.797 53.7125 379.659 52.823 387.329 57.2338ZM162.329 179.234C161.999 180.224 161.669 181.214 161.329 182.234C160.014 182.936 158.679 183.6 157.329 184.234C149.94 191.966 139.852 204.428 139.829 215.734C139.938 219.378 139.001 219.128 140.767 221.171C152.17 225.899 164.903 221.463 175.767 217.046C177.964 216.13 180.148 215.19 182.329 214.234C182.329 209.383 181.435 208.84 178.267 205.359C171.685 197.625 167.371 188.948 164.329 179.234C163.669 179.234 163.009 179.234 162.329 179.234Z" fill="#F44C00"/>
<path d="M336 146C338.125 146.375 338.125 146.375 340 147C339.319 170.392 332.987 189.944 318 208C317.34 208.99 316.68 209.98 316 211C315.34 211 314.68 211 314 211C314 211.66 314 212.32 314 213C313.34 213 312.68 213 312 213C312 213.66 312 214.32 312 215C293.316 231.052 270.791 240.257 246 239C233.567 237.832 221.412 235.116 210 230C211.345 225.964 213.859 225.146 217.438 223.312C218.036 222.992 218.635 222.672 219.252 222.342C223.711 220 223.711 220 226 220C226.33 219.34 226.66 218.68 227 218C228.969 216.711 228.969 216.711 231.5 215.375C232.722 214.706 232.722 214.706 233.969 214.023C239.926 212.012 246.203 212.971 252.378 213.51C274.101 215.279 294.027 208.179 310.75 194.188C321.501 184.224 326.81 171.481 330.887 157.734C333.699 148.301 333.699 148.301 336 146Z" fill="#F44C00"/>
<path d="M306.875 80.3125C312.261 84.9434 316.79 90.0706 321.125 95.6875C321.923 96.7197 321.923 96.7197 322.738 97.7727C331.3 109.328 331.3 109.328 330.75 116.063C330.379 117.022 330.379 117.022 330 118C329.34 118 328.68 118 328 118C328 117.01 328 116.02 328 115C327.402 114.955 326.804 114.91 326.188 114.863C322.879 113.558 322.416 111.369 321 108.188C319.107 103.964 317.33 101.194 314 98C314 97.34 314 96.68 314 96C313.428 95.7499 312.855 95.4999 312.266 95.2422C309.689 93.8293 307.875 92.151 305.75 90.125C301.73 86.4583 297.972 84.1697 293 82C293 81.34 293 80.68 293 80C290.004 78.9846 287.005 77.9853 284 77C282.94 76.652 281.881 76.3039 280.789 75.9453C262.698 70.1681 244.324 70.4279 227 79C224.815 80.2877 222.691 81.6203 220.594 83.0469C219 84 219 84 217 84C217 84.66 217 85.32 217 86C215.461 87.4805 215.461 87.4805 213.375 89.1875C198.863 101.604 192.274 118.147 190.762 136.965C190.46 149.06 192.989 165.294 200.621 175.078C202 177 202 177 202 180C202.66 180 203.32 180 204 180C205.227 181.504 205.227 181.504 206.625 183.563C208.893 186.655 211.236 189.462 214 192.125C214.619 192.726 215.238 193.326 215.875 193.945C218.034 195.287 218.034 195.287 220.766 194.441C225.26 192.438 229.508 190.084 233.785 187.658C235.493 186.715 237.244 185.851 239 185C239.66 185.33 240.32 185.66 241 186C239.439 187.106 237.876 188.21 236.312 189.313C235.442 189.927 234.572 190.542 233.676 191.176C228.895 194.435 224.749 196.871 219 198C214.879 197.042 212.884 194.98 210 192C209.01 191.67 208.02 191.34 207 191C204.657 187.756 203.564 184.949 203 181C201.515 180.505 201.515 180.505 200 180C200 179.01 200 178.02 200 177C199.34 177 198.68 177 198 177C194.024 169.724 191.181 163.213 190 155C189.836 154.226 189.673 153.452 189.504 152.655C188.696 148.399 188.541 144.132 188.312 139.813C188.253 138.917 188.193 138.022 188.131 137.1C187.744 129.758 187.819 122.272 192 116C192.289 115.134 192.577 114.268 192.875 113.375C193.796 110.613 194.794 107.986 195.938 105.313C196.256 104.566 196.574 103.82 196.902 103.051C198.039 100.927 199.263 99.6462 201 98C201.66 97.01 202.32 96.02 203 95C203.66 95 204.32 95 205 95C205 94.01 205 93.02 205 92C203.68 91.34 202.36 90.68 201 90C201.66 88.68 202.32 87.36 203 86C201.35 85.67 199.7 85.34 198 85C200.007 81.9891 200.839 81.3699 204 80C203.01 79.01 202.02 78.02 201 77C200.203 77.6149 200.203 77.6149 199.391 78.2422C198.684 78.781 197.978 79.3199 197.25 79.875C196.206 80.6755 196.206 80.6755 195.141 81.4922C193.153 82.8924 191.202 83.9786 189 85C189 85.66 189 86.32 189 87C188.01 87 187.02 87 186 87C185.691 87.6188 185.381 88.2375 185.062 88.875C184.375 90.25 183.688 91.625 183 93C182.34 93 181.68 93 181 93C180.732 93.5569 180.464 94.1138 180.188 94.6875C178.432 98.1056 176.416 101.347 174.352 104.586C167.425 115.776 163.115 127.776 162.719 141.027C162.681 142.149 162.644 143.272 162.605 144.428C162.571 145.586 162.536 146.744 162.5 147.938C162.082 161.806 162.082 161.806 161 168C160.34 168 159.68 168 159 168C158.505 169.485 158.505 169.485 158 171C157.34 170.67 156.68 170.34 156 170C156.412 170.866 156.825 171.733 157.25 172.625C158 176 158 176 156.125 179.375C155.424 180.241 154.723 181.108 154 182C154.66 182 155.32 182 156 182C156.412 181.546 156.825 181.093 157.25 180.625C159.581 178.46 161.978 177.873 165 177C169.592 186.226 169.592 186.226 169 192C166.949 189.949 166.359 188.73 165.375 186.063C165.115 185.373 164.854 184.683 164.586 183.973C164 182 164 182 164 179C162.871 179.933 161.747 180.871 160.625 181.813C159.999 182.335 159.372 182.857 158.727 183.395C156.778 185.082 156.778 185.082 155 188C154.34 188 153.68 188 153 188C152.609 189.106 152.609 189.106 152.211 190.234C150.979 193.049 149.604 194.917 147.625 197.25C144.17 201.542 141.953 205.869 140 211C138.822 208.144 138.963 207.095 140.109 204.16C140.651 203.138 141.192 202.116 141.75 201.063C142.547 199.533 142.547 199.533 143.359 197.973C145 195 145 195 146.766 192.309C147.377 191.166 147.377 191.166 148 190C147.67 189.01 147.34 188.02 147 187C144.496 185.781 144.496 185.781 142 185C142.33 185.99 142.66 186.98 143 188C142.34 188 141.68 188 141 188C141 188.66 141 189.32 141 190C140.031 190.454 139.061 190.908 138.062 191.375C134.929 192.658 134.929 192.658 134 195C133.34 195 132.68 195 132 195C132 195.66 132 196.32 132 197C131.34 197 130.68 197 130 197C129.711 197.639 129.423 198.279 129.125 198.938C128 201 128 201 126 202C130.207 192.528 139.018 184.515 146 177C146.539 176.412 147.078 175.824 147.633 175.219C149 174 149 174 151 174C151.266 173.404 151.532 172.808 151.805 172.193C153.024 169.957 154.285 168.654 156.113 166.906C160.069 162.39 159.565 158.239 159.188 152.5C158.46 129.215 166.308 108.888 180.52 90.5469C181.008 90.0364 181.497 89.526 182 89C182.66 89 183.32 89 184 89C184.495 87.515 184.495 87.515 185 86C217.418 54.7597 272.033 51.5675 306.875 80.3125ZM199 86C199.66 86 200.32 86 201 86C200.67 86.99 200.34 87.98 200 89C199.67 88.01 199.34 87.02 199 86Z" fill="#F44C00"/>
<path d="M390 68C390.99 68.495 390.99 68.495 392 69C388.932 83.9867 378.971 95.9199 369 107C368.214 107.896 367.427 108.792 366.617 109.715C359.387 117.89 351.784 126.449 343 133C342.34 133 341.68 133 341 133C341 133.66 341 134.32 341 135C339.447 136.372 337.831 137.675 336.188 138.938C333.289 141.175 330.543 143.366 328 146C324.333 149 324.333 149 322 149C322 149.66 322 150.32 322 151C320.016 152.629 320.016 152.629 317.25 154.562C313.133 157.477 309.074 160.442 305.062 163.5C299.197 167.914 293.141 171.982 287 176C285.249 177.165 283.499 178.331 281.75 179.5C280.5 180.333 279.25 181.167 278 182C277.67 181.01 277.34 180.02 277 179C278.048 178.312 278.048 178.312 279.117 177.609C280.027 176.996 280.937 176.382 281.875 175.75C282.78 175.147 283.685 174.543 284.617 173.922C287.009 171.993 287.738 170.711 289 168C291.625 167.25 291.625 167.25 294 167C293.34 166.67 292.68 166.34 292 166C292 165.34 292 164.68 292 164C293.655 162.981 295.323 161.982 297 161C297.33 160.34 297.66 159.68 298 159C296.793 158.814 296.793 158.814 295.562 158.625C294.294 158.316 294.294 158.316 293 158C292.67 157.34 292.34 156.68 292 156C287.545 156.99 287.545 156.99 283 158C287.655 152.864 293.195 148.767 299 145C299.66 145 300.32 145 301 145C301 144.34 301 143.68 301 143C302.554 141.747 304.172 140.574 305.812 139.438C310.962 135.793 315.845 131.923 320.688 127.883C324.84 124.502 326.751 124 332 124C332 124.66 332 125.32 332 126C332.99 126.495 332.99 126.495 334 127C330.559 129.294 329.277 130 325 130C324.34 131.98 323.68 133.96 323 136C323.99 135.67 324.98 135.34 326 135C327.093 135.392 328.186 135.784 329.312 136.188C333.06 137.426 333.06 137.426 336.375 135.25C339.025 133.273 339.025 133.273 340 131C340.99 131 341.98 131 343 131C343.26 130.415 343.521 129.83 343.789 129.227C345.077 126.859 346.466 125.268 348.375 123.375C348.96 122.785 349.545 122.194 350.148 121.586C352 120 352 120 354.164 118.977C356.356 118.081 356.356 118.081 357 115C357.66 115 358.32 115 359 115C359.246 114.424 359.492 113.848 359.746 113.254C361.196 110.647 362.895 108.979 365.062 106.938C368.253 103.955 368.253 103.955 370 100C370.99 100 371.98 100 373 100C373.218 99.3348 373.436 98.6697 373.66 97.9844C375.762 93.3035 378.887 89.352 381.924 85.2344C384.986 80.9368 386.953 76.944 388.442 71.874C389 70 389 70 390 68Z" fill="#F44C00"/>
<path d="M201 74C201.99 74.495 201.99 74.495 203 75C202.319 75.5362 201.639 76.0725 200.938 76.625C198.064 78.9479 195.302 81.3636 192.551 83.8281C191 85 191 85 189 85C189 85.66 189 86.32 189 87C188.01 87 187.02 87 186 87C185.691 87.6187 185.381 88.2375 185.062 88.875C184.375 90.25 183.688 91.625 183 93C182.34 93 181.68 93 181 93C180.732 93.5569 180.464 94.1137 180.188 94.6875C178.432 98.1056 176.416 101.347 174.352 104.586C167.425 115.776 163.115 127.776 162.719 141.027C162.681 142.149 162.644 143.272 162.605 144.428C162.571 145.586 162.536 146.744 162.5 147.938C162.082 161.806 162.082 161.806 161 168C160.34 168 159.68 168 159 168C158.505 169.485 158.505 169.485 158 171C157.34 170.67 156.68 170.34 156 170C156.412 170.866 156.825 171.733 157.25 172.625C158 176 158 176 156.125 179.375C155.424 180.241 154.723 181.108 154 182C154.66 182 155.32 182 156 182C156.412 181.546 156.825 181.093 157.25 180.625C159.581 178.46 161.978 177.873 165 177C169.592 186.226 169.592 186.226 169 192C166.949 189.949 166.359 188.73 165.375 186.062C165.115 185.373 164.854 184.683 164.586 183.973C164 182 164 182 164 179C162.871 179.933 161.747 180.871 160.625 181.812C159.999 182.335 159.372 182.857 158.727 183.395C156.778 185.082 156.778 185.082 155 188C154.34 188 153.68 188 153 188C152.74 188.737 152.479 189.475 152.211 190.234C150.979 193.049 149.604 194.917 147.625 197.25C144.17 201.542 141.953 205.869 140 211C138.822 208.144 138.963 207.095 140.109 204.16C140.651 203.138 141.192 202.116 141.75 201.062C142.281 200.043 142.812 199.023 143.359 197.973C145 195 145 195 146.766 192.309C147.173 191.547 147.58 190.785 148 190C147.67 189.01 147.34 188.02 147 187C144.496 185.781 144.496 185.781 142 185C142.33 185.99 142.66 186.98 143 188C142.34 188 141.68 188 141 188C141 188.66 141 189.32 141 190C139.546 190.681 139.546 190.681 138.062 191.375C134.929 192.658 134.929 192.658 134 195C133.34 195 132.68 195 132 195C132 195.66 132 196.32 132 197C131.34 197 130.68 197 130 197C129.711 197.639 129.423 198.279 129.125 198.938C128 201 128 201 126 202C130.207 192.528 139.018 184.515 146 177C146.539 176.412 147.078 175.824 147.633 175.219C149 174 149 174 151 174C151.266 173.404 151.532 172.808 151.805 172.193C153.024 169.957 154.285 168.654 156.113 166.906C160.069 162.39 159.565 158.239 159.188 152.5C158.46 129.215 166.308 108.888 180.52 90.5469C181.008 90.0364 181.497 89.5259 182 89C182.66 89 183.32 89 184 89C184.33 88.01 184.66 87.02 185 86C187.074 84.0977 187.074 84.0977 189.688 82.0625C190.586 81.3625 191.484 80.6626 192.41 79.9414C195.213 77.8402 198.039 75.87 201 74Z" fill="#F44C00"/>
<path d="M336 146C338.125 146.375 338.125 146.375 340 147C339.319 170.392 332.987 189.944 318 208C317.34 208.99 316.68 209.98 316 211C315.34 211 314.68 211 314 211C313.505 211.99 313.505 211.99 313 213C313.33 211.35 313.66 209.7 314 208C314.66 208 315.32 208 316 208C316 207.01 316 206.02 316 205C316.66 205 317.32 205 318 205C318.268 204.361 318.536 203.721 318.812 203.062C320 201 320 201 323 200C323 199.01 323 198.02 323 197C323.66 197 324.32 197 325 197C325 196.01 325 195.02 325 194C323.35 193.67 321.7 193.34 320 193C320 193.66 320 194.32 320 195C318.064 195.672 316.126 196.338 314.188 197C313.109 197.371 312.03 197.743 310.918 198.125C308 199 308 199 305 199C305.641 198.466 306.281 197.933 306.941 197.383C319.72 186.375 326.172 173.634 330.887 157.734C333.699 148.301 333.699 148.301 336 146Z" fill="#F44C00"/>
<path d="M295 73C305.804 76.5274 314.413 86.9586 321.125 95.6875C321.657 96.3753 322.188 97.0631 322.736 97.7717C331.3 109.324 331.3 109.324 330.75 116.062C330.502 116.702 330.255 117.341 330 118C329.34 118 328.68 118 328 118C328 117.01 328 116.02 328 115C327.402 114.955 326.804 114.91 326.188 114.863C322.879 113.558 322.416 111.369 321 108.188C319.107 103.964 317.33 101.194 314 98C314 97.34 314 96.68 314 96C313.428 95.7499 312.855 95.4998 312.266 95.2422C309.689 93.8293 307.875 92.151 305.75 90.125C301.73 86.4583 297.972 84.1697 293 82C293 81.34 293 80.68 293 80C291.68 79.34 290.36 78.68 289 78C292.767 78 293.912 78.2354 297 80C297 78.68 297 77.36 297 76C296.34 75.67 295.68 75.34 295 75C295 74.34 295 73.68 295 73Z" fill="#F44C00"/>
<path d="M205 92C206.32 92.33 207.64 92.66 209 93C207.701 94.4231 207.701 94.4231 206.375 95.875C194.468 109.995 189.577 128.67 191 147C192.545 156.264 194.777 167.586 200.621 175.078C202 177 202.5 177 202.5 180C200.621 174 203.592 179.5 204 180C205.227 181.504 205.227 181.504 206.625 183.562C208.893 186.655 211.236 189.462 214 192.125C214.619 192.726 215.238 193.326 215.875 193.945C218.034 195.287 218.034 195.287 220.766 194.441C225.26 192.438 229.508 190.084 233.785 187.658C235.493 186.715 237.244 185.851 239 185C239.99 185.495 239.99 185.495 241 186C239.439 187.106 237.876 188.21 236.313 189.312C235.442 189.927 234.572 190.542 233.676 191.176C228.895 194.435 224.749 196.871 219 198C214.879 197.042 212.884 194.98 210 192C208.515 191.505 208.515 191.505 207 191C204.657 187.756 203.564 184.949 203 181C202.01 180.67 201.02 180.34 200 180C200 179.01 200 178.02 200 177C199.34 177 198.68 177 198 177C194.024 169.724 191.181 163.213 190 155C189.754 153.839 189.754 153.839 189.504 152.655C188.696 148.399 188.541 144.132 188.313 139.812C188.253 138.917 188.193 138.022 188.131 137.1C187.744 129.758 187.819 122.272 192 116C192.433 114.701 192.433 114.701 192.875 113.375C193.796 110.613 194.794 107.986 195.938 105.312C196.415 104.193 196.415 104.193 196.902 103.051C198.039 100.927 199.263 99.6462 201 98C201.66 97.01 202.32 96.02 203 95C203.66 95 204.32 95 205 95C205 94.01 205 93.02 205 92Z" fill="#F44C00"/>
<path d="M390 68C390.99 68.495 390.99 68.495 392 69C388.932 83.9867 378.971 95.9199 369 107C368.214 107.896 367.427 108.792 366.617 109.715C359.387 117.89 351.784 126.449 343 133C342.34 133 341.68 133 341 133C341 133.66 341 134.32 341 135C339.447 136.372 337.831 137.675 336.188 138.938C333.289 141.175 330.543 143.366 328 146C324.333 149 324.333 149 322 149C322.33 148.01 322.66 147.02 323 146C325.062 145.312 325.062 145.312 327 145C327 144.34 327 143.68 327 143C329.664 140.013 332.481 137.591 335.75 135.312C339.006 133.379 339.006 133.379 340 131C340.99 131 341.98 131 343 131C343.26 130.415 343.521 129.83 343.789 129.227C345.077 126.859 346.466 125.268 348.375 123.375C348.96 122.785 349.545 122.194 350.148 121.586C352 120 352 120 354.164 118.977C356.356 118.081 356.356 118.081 357 115C357.66 115 358.32 115 359 115C359.246 114.424 359.492 113.848 359.746 113.254C361.196 110.647 362.895 108.979 365.062 106.938C368.253 103.955 368.253 103.955 370 100C370.99 100 371.98 100 373 100C373.218 99.3348 373.436 98.6697 373.66 97.9844C375.762 93.3035 378.887 89.352 381.924 85.2344C384.986 80.9368 386.953 76.944 388.442 71.874C389 70 389 70 390 68Z" fill="#F44C00"/>
<path d="M310.242 214.316C310.822 214.542 311.402 214.768 312 215C290.154 231.891 267.328 241.827 239.25 238.25C220.531 235.354 220.531 235.354 214 231C219.767 230.68 224.152 231.441 229.605 233.344C231.966 234.11 231.966 234.11 234.363 233.969C237 234 237 234 240.375 234.98C256.538 239.526 275.986 234.026 290.293 226.217C295.999 223.01 301.228 219.513 306.133 215.152C308 214 308 214 310.242 214.316Z" fill="#F44C00"/>
<path d="M336 146C337.32 146.33 338.64 146.66 340 147C339.319 170.392 332.987 189.944 318 208C317.34 208.99 316.68 209.98 316 211C314 213 314.18 213 313.5 213C312.5 213 313.505 211.99 313 213C313.33 211.35 313.66 209.7 314 208C314.66 208 315.32 208 316 208C316 207.01 316 206.02 316 205C316.66 205 317.32 205 318 205C318.402 204.041 318.402 204.041 318.812 203.062C320 201 320 201 323 200C323 199.01 323 198.02 323 197C323.66 197 324.32 197 325 197C325 196.01 325 195.02 325 194C325.66 194 326.32 194 327 194C327.248 192.721 327.495 191.442 327.75 190.125C328.505 186.676 329.522 183.606 330.938 180.375C333.686 173.825 334.72 166.954 336 160C336.639 156.993 337.316 153.997 338 151C337.34 151 336.68 151 336 151C336 152.32 336 153.64 336 155C335.34 155 334.68 155 334 155C333.917 155.804 333.835 156.609 333.75 157.438C332.798 161.959 330.984 165.847 329 170C327.894 166.712 328.104 164.913 329.312 161.688C330.346 158.845 331.23 156.125 332 153.188C332.947 150.168 333.929 148.353 336 146Z" fill="#F44C00"/>
<path d="M295 72C290.943 73.3525 289.151 72.186 285.188 70.6875C266.334 63.6351 248.004 62.32 228 65C228 65.66 228 66.32 228 67C226.982 67.1018 225.963 67.2037 224.914 67.3086C220.893 68.019 218.006 69.2299 214.375 71.0625C210.347 73.0956 207.545 74.3971 203 74C205.658 70.7287 209.115 69.4798 212.938 68C213.603 67.7387 214.268 67.4775 214.953 67.2083C241.61 56.9986 269.819 58.9416 295 72Z" fill="#F44C00"/>
<path d="M201 74C201.66 74.33 202.32 74.66 203 75C202.319 75.5362 201.639 76.0725 200.938 76.625C198.064 78.9479 195.302 81.3636 192.551 83.8281C191 85 191 85 189 85C189 85.66 189 86.32 189 87C188.01 87 187.02 87 186 87C185.691 87.6187 185.381 88.2375 185.063 88.875C184.375 90.25 183.688 91.625 183 93C182.34 93 181.68 93 181 93C180.732 93.5569 180.464 94.1137 180.188 94.6875C178.432 98.1056 176.416 101.347 174.352 104.586C168.446 114.126 164.78 123.899 163 135C162.67 135.66 162.34 136.32 162 137C161.861 138.365 161.775 139.735 161.719 141.105C161.681 141.925 161.644 142.744 161.605 143.588C161.571 144.446 161.536 145.304 161.5 146.188C161.265 151.859 160.91 157.394 160 163C159.67 163 159.34 163 159 163C158.263 135.426 163.355 112.699 180.52 90.5469C181.008 90.0364 181.497 89.5259 182 89C182.66 89 183.32 89 184 89C184.33 88.01 184.66 87.02 185 86C187.074 84.0977 187.074 84.0977 189.688 82.0625C191.035 81.0126 191.035 81.0126 192.41 79.9414C195.213 77.8402 198.039 75.87 201 74Z" fill="#F44C00"/>
<path d="M264 64C270.088 64.4349 275.291 65.9231 281 68C282.874 68.6658 284.748 69.3316 286.623 69.9971C289.417 70.9917 292.209 71.9955 295 73C295 73.66 295 74.32 295 75C296.32 75.66 297.64 76.32 299 77C298.34 77.33 297.68 77.66 297 78C297 78.66 297 79.32 297 80C293.098 78.9494 289.592 77.8229 286 76C284.298 75.2974 282.589 74.6104 280.875 73.9375C276.194 72.0972 276.194 72.0972 274 71C272.296 70.7738 270.587 70.5911 268.875 70.4375C267.965 70.3537 267.055 70.2699 266.117 70.1836C265.419 70.123 264.72 70.0624 264 70C263.618 68.3439 263.286 66.6754 263 65C263.33 64.67 263.66 64.34 264 64Z" fill="#F44C00"/>
<path d="M387 57C389.793 59.7932 391.417 62.0655 392 66C391.34 66.33 390.68 66.66 390 67C389.602 66.1512 389.602 66.1512 389.195 65.2852C388.842 64.5517 388.489 63.8182 388.125 63.0625C387.777 62.3316 387.429 61.6007 387.07 60.8477C386.132 58.8367 386.132 58.8367 384 58C379.819 57.6737 375.629 57.6753 371.438 57.625C370.282 57.5876 369.126 57.5502 367.936 57.5117C361.118 57.442 356.588 57.983 350.985 62.0171C348.32 63.3368 346.828 62.6923 344 62C341.063 62.8477 341.063 62.8477 338.125 64.25C337.077 64.7154 336.029 65.1807 334.949 65.6602C333.976 66.1023 333.003 66.5445 332 67C330.647 67.5662 329.294 68.1295 327.938 68.6875C324.898 69.9477 324.898 69.9477 322 72C318.312 71.625 318.312 71.625 315 71C330.848 60.4344 369.109 46.5875 387 57Z" fill="#F44C00"/>
<path d="M299 81C302.214 80.6518 303.658 80.7739 306.395 82.582C312.423 88.1434 317.702 93.9766 322 101C322 101.66 322 102.32 322 103C322.66 103 323.32 103 324 103C324.33 104.32 324.66 105.64 325 107C323.68 107.33 322.36 107.66 321 108C320.588 107.093 320.175 106.185 319.75 105.25C318.103 102.19 316.466 100.381 314 98C314 97.34 314 96.68 314 96C313.435 95.7486 312.871 95.4973 312.289 95.2383C309.666 93.8192 307.62 92.1505 305.375 90.1875C304.599 89.5211 303.823 88.8546 303.023 88.168C300.877 85.8687 299.964 83.9692 299 81Z" fill="#F44C00"/>
<path d="M315 71C315 71.66 315 72.32 315 73C314.01 73 313.02 73 312 73C312.791 74.9998 312.791 74.9998 314 77C314.99 77.33 315.98 77.66 317 78C317.33 78.66 317.66 79.32 318 80C318.978 79.6926 318.978 79.6926 319.977 79.3789C323.846 78.1861 327.556 77.0701 331.562 76.4375C332.769 76.2209 332.769 76.2209 334 76C334.33 75.34 334.66 74.68 335 74C342.92 74.33 350.84 74.66 359 75C361 79 361 79 361 82C360.34 82 359.68 82 359 82C359 83.65 359 85.3 359 87C358.34 87 357.68 87 357 87C357 84.03 357 81.06 357 78C348.261 73.6303 335.987 78.2973 327.285 80.8086C318.201 83.4004 318.201 83.4004 314 82C314 81.01 314 80.02 314 79C313.34 79 312.68 79 312 79C312 78.34 312 77.68 312 77C311.01 76.67 310.02 76.34 309 76C311.258 71 311.258 71 315 71Z" fill="#F44C00"/>
<path d="M216 217C205.408 225.479 191.991 230.432 179.562 235.563C178.907 235.834 178.252 236.105 177.577 236.385C166.392 241 166.392 241 164 241C164 240.34 164 239.68 164 239C165.32 239 166.64 239 168 239C168 238.34 168 237.68 168 237C169.109 236.518 170.217 236.036 171.359 235.539C172.823 234.901 174.286 234.263 175.75 233.625C176.48 233.308 177.209 232.991 177.961 232.664C178.67 232.355 179.379 232.045 180.109 231.727C180.759 231.444 181.408 231.161 182.077 230.87C186.371 228.944 186.371 228.944 190 226C192.005 225.777 194.013 225.558 196.027 225.441C198.523 224.883 199.256 223.837 201 222C203.305 220.613 203.305 220.613 205.875 219.313C206.718 218.876 207.561 218.439 208.43 217.988C211.151 216.942 213.112 216.809 216 217Z" fill="#F44C00"/>
<path d="M180 208C180.99 208 181.98 208 183 208C183.495 210.97 183.495 210.97 184 214C171.398 220.811 158.781 226.824 144 225C141.27 224.156 141.27 224.156 139 223C137.259 219.27 136.759 216.09 137 212C137.66 211.67 138.32 211.34 139 211C139.021 212.258 139.041 213.516 139.063 214.812C139.292 217.007 139.292 217.007 140 219C144.978 222.651 149.701 222.267 155.68 221.578C164.873 219.977 173.648 217.154 182 213C181.34 211.35 180.68 209.7 180 208Z" fill="#F44C00"/>
<path d="M360 112C360.99 112 361.98 112 363 112C359.563 120.215 350.084 127.756 343 133C342.34 133 341.68 133 341 133C341 133.66 341 134.32 341 135C339.447 136.372 337.831 137.675 336.188 138.938C333.289 141.175 330.543 143.366 328 146C324.333 149 324.333 149 322 149C322.33 148.01 322.66 147.02 323 146C325.062 145.312 325.062 145.312 327 145C327 144.34 327 143.68 327 143C329.664 140.013 332.481 137.591 335.75 135.312C339.006 133.379 339.006 133.379 340 131C340.99 131 341.98 131 343 131C343.391 130.122 343.391 130.122 343.789 129.227C345.077 126.859 346.466 125.268 348.375 123.375C348.96 122.785 349.545 122.194 350.148 121.586C352 120 352 120 354.164 118.977C356.356 118.081 356.356 118.081 357 115C357.66 115 358.32 115 359 115C359.33 114.01 359.66 113.02 360 112Z" fill="#F44C00"/>
<path d="M166 178C168.371 182.557 169.386 186.85 169 192C166.949 189.949 166.359 188.73 165.375 186.063C164.984 185.028 164.984 185.028 164.586 183.973C164 182 164 182 164 179C162.871 179.933 161.747 180.871 160.625 181.813C159.999 182.335 159.372 182.857 158.727 183.395C156.778 185.082 156.778 185.082 155 188C154.34 188 153.68 188 153 188C152.74 188.737 152.479 189.475 152.211 190.234C150.979 193.049 149.604 194.917 147.625 197.25C144.17 201.542 141.953 205.869 140 211C138.835 208.16 138.967 207.088 140.074 204.16C140.607 203.138 141.139 202.116 141.688 201.063C142.467 199.533 142.467 199.533 143.262 197.973C144.97 195.052 146.731 192.509 149 190C149.66 190 150.32 190 151 190C151.371 189.196 151.371 189.196 151.75 188.375C154.317 183.497 159.126 174.563 166 178Z" fill="#F44C00"/>
<path d="M262 69C263.75 69.087 263.75 69.087 265.535 69.1758C274.683 69.6835 274.683 69.6835 277 72C279.834 72.824 282.689 73.4663 285.566 74.1211C286.771 74.5562 286.771 74.5562 288 75C288.495 76.485 288.495 76.485 289 78C288.196 77.7274 288.196 77.7274 287.375 77.4492C270.025 71.8847 254.766 70.6797 237 75C235.209 75.3999 233.418 75.7963 231.625 76.1875C230.429 76.4556 229.232 76.7238 228 77C228 76.34 228 75.68 228 75C251.378 67.9604 251.378 67.9604 262 69Z" fill="#F44C00"/>
<path d="M261 193C253.008 197.512 245.016 202.019 236.941 206.383C234.562 207.691 232.198 209.021 229.84 210.367C229.113 210.781 228.386 211.195 227.637 211.621C226.191 212.446 224.747 213.274 223.305 214.105C218.222 217 218.222 217 216 217C216 216.34 216 215.68 216 215C216.99 215 217.98 215 219 215C219 214.34 219 213.68 219 213C219.804 212.633 219.804 212.633 220.625 212.258C226.351 209.527 231.71 206.388 237.062 203C255.673 191.224 255.673 191.224 261 193Z" fill="#F44C00"/>
<path d="M181 100C181.66 100.33 182.32 100.66 183 101C183 103.97 183 106.94 183 110C181.02 110.99 181.02 110.99 179 112C178.299 112.701 177.598 113.402 176.875 114.125C175.947 115.053 175.947 115.053 175 116C174.34 116 173.68 116 173 116C173.33 116.99 173.66 117.98 174 119C171.525 118.01 171.525 118.01 169 117C169.498 113.265 169.875 111.188 172 108C175.125 107.312 175.125 107.312 178 107C178 106.01 178 105.02 178 104C178.66 103.34 179.32 102.68 180 102C180.33 101.34 180.66 100.68 181 100Z" fill="#F44C00"/>
<path d="M197 83C200 84.5 200 84.5 203 86C202.812 87.8125 202.812 87.8125 202 90C199.438 91.75 199.438 91.75 197 93C196.01 92.34 195.02 91.68 194 91C194.66 92.65 195.32 94.3 196 96C195.34 96 194.68 96 194 96C193.34 97.32 192.68 98.64 192 100C189.69 99.67 187.38 99.34 185 99C184.876 98.3606 184.752 97.7212 184.625 97.0625C184.419 96.3819 184.213 95.7013 184 95C183.34 94.67 182.68 94.34 182 94C183.65 94 185.3 94 187 94C187 93.34 187 92.68 187 92C191.5 90.5 191.5 90.5 196 89C196.33 87.02 196.66 85.04 197 83ZM199 86C199.33 86.99 199.66 87.98 200 89C200.33 88.01 200.66 87.02 201 86C200.34 86 199.68 86 199 86Z" fill="#F44C00"/>
<path d="M110 230C110.33 230 110.66 230 111 230C111 232.97 111 235.94 111 239C111.66 239 112.32 239 113 239C113 240.32 113 241.64 113 243C122.714 246 129.791 246.844 139.703 244.145C142 244 142 244 144.297 245.449C144.859 245.961 145.421 246.473 146 247C137.044 249.559 124.971 251.33 116.188 247.312C111.314 243.777 111.314 243.777 110 240C109.779 236.65 109.824 233.351 110 230Z" fill="#F44C00"/>
<path d="M336 151C336.66 151 337.32 151 338 151C336.073 167.893 336.073 167.893 334 175C333.01 175 332.02 175 331 175C331 174.34 331 173.68 331 173C330.01 173 329.02 173 328 173C328.849 169.135 330.216 165.462 331.562 161.75C331.796 161.1 332.03 160.451 332.271 159.781C332.846 158.187 333.423 156.593 334 155C334.66 155 335.32 155 336 155C336 153.68 336 152.36 336 151Z" fill="#F44C00"/>
<path d="M315 133C315.495 133.99 315.495 133.99 316 135C314.377 136.709 312.707 138.374 311 140C310.34 140 309.68 140 309 140C309 140.66 309 141.32 309 142C307.68 142 306.36 142 305 142C304.814 142.557 304.629 143.114 304.438 143.688C302.943 146.091 301.873 146.897 299.562 148.438C296.356 150.577 294.947 152.662 293 156C291.188 156.75 291.188 156.75 289 157C287.928 157.186 286.855 157.371 285.75 157.562C284.842 157.707 283.935 157.851 283 158C287.655 152.864 293.195 148.767 299 145C299.66 145 300.32 145 301 145C301 144.34 301 143.68 301 143C302.718 141.6 304.501 140.278 306.312 139C307.299 138.299 308.285 137.598 309.301 136.875C311.188 135.564 313.089 134.274 315 133Z" fill="#F44C00"/>
<path d="M161 137C161.33 137 161.66 137 162 137C162.029 140.854 162.047 144.708 162.062 148.562C162.071 149.649 162.079 150.735 162.088 151.854C162.105 157.348 161.986 162.59 161 168C160.34 168 159.68 168 159 168C158.505 169.485 158.505 169.485 158 171C157.34 170.67 156.68 170.34 156 170C155.67 170.99 155.34 171.98 155 173C151.556 176 151.556 176 149 176C149 176.99 149 177.98 149 179C146.525 179.495 146.525 179.495 144 180C145.616 177.959 147.286 175.959 149 174C149.66 174 150.32 174 151 174C151.206 173.464 151.412 172.928 151.625 172.375C153.232 169.598 155.186 167.962 157.66 165.953C159.752 162.904 159.758 159.591 160 156C160.054 155.199 160.109 154.397 160.165 153.571C160.317 151.048 160.444 148.525 160.562 146C160.606 145.13 160.649 144.26 160.693 143.363C160.798 141.242 160.9 139.121 161 137Z" fill="#F44C00"/>
<path d="M281 158C281.66 158.33 282.32 158.66 283 159C277.843 164.02 273.026 167.718 266.484 170.715C262.98 172.527 260.098 174.933 257.051 177.418C254.487 179.396 251.959 180.71 249 182C248.34 181.34 247.68 180.68 247 180C247.946 179.417 248.892 178.835 249.867 178.234C260.4 171.716 270.73 164.924 281 158Z" fill="#F44C00"/>
<path d="M352 95C352.33 96.32 352.66 97.64 353 99C352.34 99 351.68 99 351 99C351 99.99 351 100.98 351 102C350.01 102.495 350.01 102.495 349 103C348.608 103.701 348.216 104.402 347.812 105.125C345.413 108.931 342.454 112.112 339 115C338.34 115 337.68 115 337 115C337 115.66 337 116.32 337 117C336.34 117 335.68 117 335 117C334.752 117.598 334.505 118.196 334.25 118.812C332.805 121.341 331.517 122.551 329 124C328.01 123.67 327.02 123.34 326 123C326.473 122.599 326.946 122.198 327.434 121.785C336.781 113.749 345.143 105.285 352 95Z" fill="#F44C00"/>
<path d="M246 213C247.379 213.12 247.379 213.12 248.785 213.242C251.194 213.466 253.597 213.719 256 214C254 216 254 216 252.188 216.116C251.466 216.061 250.744 216.006 250 215.949C238.979 215.054 238.979 215.054 229.188 219.438C228.5 220.076 227.813 220.714 227.105 221.371C224.458 223.419 222.287 223.667 219 224C221.224 221.443 222.75 220.758 226 220C226.33 219.34 226.66 218.68 227 218C233.279 213.889 238.584 212.225 246 213Z" fill="#F44C00"/>
<path d="M346 61C342.719 62.4062 342.719 62.4062 339.438 63.8125C338.828 64.0735 338.219 64.3346 337.592 64.6035C336.983 64.8645 336.374 65.1256 335.746 65.3945C335.13 65.6596 334.513 65.9246 333.878 66.1977C332.614 66.7376 331.348 67.271 330.079 67.7983C327.165 69.0162 324.639 70.2408 322 72C318.312 71.625 318.312 71.625 315 71C317.441 69.3728 319.334 68.3796 322.02 67.3437C322.795 67.0434 323.57 66.743 324.369 66.4336C325.175 66.1255 325.982 65.8174 326.812 65.5C327.607 65.1919 328.402 64.8838 329.221 64.5664C331.476 63.6973 333.737 62.8471 336 62C337.097 61.5772 338.194 61.1544 339.324 60.7187C342.07 59.9812 343.38 59.9923 346 61Z" fill="#F44C00"/>
<path d="M143 180C143.878 183.097 143.994 184.906 143 188C142.34 188 141.68 188 141 188C141 188.66 141 189.32 141 190C139.546 190.681 139.546 190.681 138.062 191.375C134.929 192.658 134.929 192.658 134 195C133.34 195 132.68 195 132 195C132 195.66 132 196.32 132 197C131.34 197 130.68 197 130 197C129.711 197.639 129.423 198.279 129.125 198.938C128 201 128 201 126 202C127.575 198.422 129.757 195.685 132.25 192.688C133.447 191.245 133.447 191.245 134.668 189.773C137.424 186.496 140.196 183.236 143 180Z" fill="#F44C00"/>
<path d="M325 103C328.338 105.703 329.622 109.003 331 113C330.688 115.938 330.688 115.938 330 118C329.34 118 328.68 118 328 118C328 117.01 328 116.02 328 115C327.381 114.959 326.762 114.918 326.125 114.875C325.073 114.442 325.073 114.442 324 114C322.75 110.938 322.75 110.938 322 108C322.66 107.67 323.32 107.34 324 107C324.652 104.975 324.652 104.975 325 103Z" fill="#F44C00"/>
<path d="M320 148C320.66 148.33 321.32 148.66 322 149C322 149.66 322 150.32 322 151C320.386 152.317 318.706 153.554 317 154.75C312.777 157.736 308.633 160.784 304.559 163.969C303 165 303 165 301 165C302.363 161.882 303.851 159.953 306.438 157.75C307.034 157.229 307.631 156.708 308.246 156.172C310 155 310 155 313 155C313.227 154.361 313.454 153.721 313.688 153.062C315 151 315 151 317.625 150.25C318.801 150.126 318.801 150.126 320 150C320 149.34 320 148.68 320 148Z" fill="#F44C00"/>
<path d="M192 117C192.33 117 192.66 117 193 117C192.94 117.581 192.88 118.162 192.819 118.761C192.129 125.544 191.521 132.332 190.938 139.125C190.801 140.703 190.801 140.703 190.662 142.312C190.441 144.875 190.22 147.437 190 150C189.67 150 189.34 150 189 150C188.77 146.709 188.57 143.418 188.375 140.125C188.278 138.748 188.278 138.748 188.18 137.344C187.825 131.049 188.039 125.047 190 119C190.66 118.34 191.32 117.68 192 117Z" fill="#F44C00"/>
<path d="M221 225C220.01 226.485 220.01 226.485 219 228C219.99 228 220.98 228 222 228C222 228.99 222 229.98 222 231C220.375 231.054 218.75 231.093 217.125 231.125C216.22 231.148 215.315 231.171 214.383 231.195C212 231 212 231 210 229C213.6 225.152 215.748 223.37 221 225Z" fill="#F44C00"/>
<path d="M326 173C326.66 173.33 327.32 173.66 328 174C325.076 183.672 319.641 188.659 312 195C310.649 196.315 309.308 197.642 308 199C307.34 198.67 306.68 198.34 306 198C306.961 197.199 306.961 197.199 307.941 196.383C315.737 189.668 321.783 182.427 326 173Z" fill="#F44C00"/>
<path d="M228 65C228 65.66 228 66.32 228 67C226.982 67.1018 225.963 67.2037 224.914 67.3086C220.893 68.0189 218.006 69.2299 214.375 71.0625C210.347 73.0956 207.545 74.3971 203 74C207.392 68.8555 215.493 66.1582 222.062 65.1875C224.039 65.0614 226.02 65 228 65Z" fill="#F44C00"/>
<path d="M164 177C166.998 178.499 167.308 180.803 168.402 183.855C169.174 186.623 169.214 189.146 169 192C166.949 189.949 166.359 188.73 165.375 186.062C165.115 185.373 164.854 184.683 164.586 183.973C164 182 164 182 164 179C161.36 181.31 158.72 183.62 156 186C155.34 185.67 154.68 185.34 154 185C156.848 180.948 159.367 178.813 164 177Z" fill="#F44C00"/>
<path d="M296 170C293.585 171.628 291.168 173.252 288.75 174.875C288.068 175.335 287.386 175.795 286.684 176.27C286.02 176.714 285.356 177.159 284.672 177.617C283.761 178.23 283.761 178.23 282.831 178.855C280.94 180.038 279.009 181.034 277 182C277 181.01 277 180.02 277 179C279.012 177.281 279.012 177.281 281.688 175.5C282.558 174.912 283.428 174.324 284.324 173.719C285.207 173.152 286.09 172.584 287 172C287.852 171.412 288.704 170.824 289.582 170.219C292.403 168.797 293.104 169.098 296 170Z" fill="#F44C00"/>
<path d="M336 146C337.32 146.33 338.64 146.66 340 147C339.858 149.375 339.711 151.75 339.562 154.125C339.504 155.123 339.504 155.123 339.443 156.141C339.188 160.15 338.732 164.05 338 168C337.67 168 337.34 168 337 168C336.973 165.729 336.954 163.458 336.938 161.188C336.926 159.923 336.914 158.658 336.902 157.355C337 154 337 154 338 151C336.68 150.34 335.36 149.68 334 149C334.66 148.01 335.32 147.02 336 146Z" fill="#F44C00"/>
<path d="M315 212C314.5 212 312 217.5 305.5 217.5C304.246 217.575 295.179 218.546 293.887 218.623C292.458 218.697 292.458 218.697 291 218.772C291 218.112 291 217.452 291 216.772C292.085 216.579 293.171 216.385 294.289 216.186C295.734 215.923 297.18 215.66 298.625 215.397C299.338 215.271 300.051 215.144 300.785 215.014C304.12 214.402 307.179 213.711 310.398 212.608C313 211.772 313 211 315 212Z" fill="#F44C00"/>
<path d="M226 79C223.47 82.0917 220.775 82.9093 217 84C217 84.66 217 85.32 217 86C215.25 87.5078 215.25 87.5078 213 89.125C212.257 89.6638 211.515 90.2027 210.75 90.7578C210.173 91.1677 209.595 91.5777 209 92C209 90.68 209 89.36 209 88C210.609 86.4023 210.609 86.4023 212.75 84.9375C213.794 84.2085 213.794 84.2085 214.859 83.4648C215.566 82.9814 216.272 82.498 217 82C217.691 81.4483 218.382 80.8966 219.094 80.3281C221.518 78.639 223.109 78.7591 226 79Z" fill="#F44C00"/>
<path d="M390 68C390.66 68.33 391.32 68.66 392 69C390.177 76.5163 387.242 82.548 383 89C382.391 87.168 382.391 87.168 382 85C382.928 83.5742 383.868 82.1534 384.879 80.7852C386.611 78.0275 387.443 75.0521 388.387 71.9531C389 70 389 70 390 68Z" fill="#F44C00"/>
<path d="M159 164C159 168.073 157.415 169.779 155 173C151.6 176 151.6 176 149 176C149 176.99 149 177.98 149 179C147.35 179.33 145.7 179.66 144 180C145.616 177.959 147.286 175.959 149 174C149.66 174 150.32 174 151 174C151.206 173.464 151.412 172.928 151.625 172.375C153.58 168.998 156.182 166.695 159 164Z" fill="#F44C00"/>
<path d="M277 182C274.195 184.295 271.349 186.529 268.438 188.688C267.879 189.104 267.321 189.52 266.746 189.949C264.847 191.092 263.163 191.569 261 192C262.44 188.459 264.15 186.855 267.312 184.75C268.072 184.229 268.831 183.708 269.613 183.172C272.294 181.856 274.052 181.77 277 182Z" fill="#F44C00"/>
<path d="M281 158C281.66 158.33 282.32 158.66 283 159C277.437 164.418 272.344 168.361 265 171C266.11 167.671 266.571 167.336 269.379 165.52C270.052 165.078 270.726 164.637 271.42 164.182C272.127 163.73 272.834 163.278 273.562 162.812C274.273 162.349 274.984 161.886 275.717 161.408C277.473 160.265 279.236 159.131 281 158Z" fill="#F44C00"/>
<path d="M315 71C315 71.66 315 72.32 315 73C314.01 73 313.02 73 312 73C312.791 74.9998 312.791 74.9998 314 77C314.99 77.33 315.98 77.66 317 78C318.688 79.4375 318.688 79.4375 320 81C320 81.66 320 82.32 320 83C317.03 82.505 317.03 82.505 314 82C314 81.01 314 80.02 314 79C313.34 79 312.68 79 312 79C312 78.34 312 77.68 312 77C311.01 76.67 310.02 76.34 309 76C311.258 71 311.258 71 315 71Z" fill="#F44C00"/>
<path d="M125 202C125.33 202.99 125.66 203.98 126 205C126.66 205.33 127.32 205.66 128 206C127.134 206.309 127.134 206.309 126.25 206.625C123.206 208.485 121.945 211.051 120 214C119.01 214.33 118.02 214.66 117 215C118.59 209.911 121.745 206.125 125 202Z" fill="#F44C00"/>
<path d="M239 72C236.099 73.9339 235.103 74.3013 231.812 74.625C230.554 74.7487 229.296 74.8725 228 75C228.33 75.99 228.66 76.98 229 78C226.69 78.33 224.38 78.66 222 79C223.32 78.34 224.64 77.68 226 77C226 76.01 226 75.02 226 74C230.881 71.5596 233.527 70.5315 239 72Z" fill="#F44C00"/>
<path d="M369 54C375.471 53.642 381.269 53.6647 387 57C389.793 59.7932 391.417 62.0655 392 66C391.01 66.495 391.01 66.495 390 67C389.804 66.4573 389.608 65.9146 389.406 65.3555C387.604 61.0114 387.604 61.0114 384.27 57.8359C379.364 55.897 374.233 55.3513 369 55C369 54.67 369 54.34 369 54Z" fill="#F44C00"/>
<path d="M199 217C198.34 218.65 197.68 220.3 197 222C197.66 222 198.32 222 199 222C199 221.34 199 220.68 199 220C199.66 220.33 200.32 220.66 201 221C199 224 199 224 196.5 224.75C194 225 194 225 192 224C192 223.34 192 222.68 192 222C192.66 222 193.32 222 194 222C194.124 221.361 194.248 220.721 194.375 220.062C194.581 219.382 194.787 218.701 195 218C197 217 197 217 199 217Z" fill="#F44C00"/>
<path d="M169 192C169.99 192.33 170.98 192.66 172 193C172.33 194.65 172.66 196.3 173 198C173.99 198.33 174.98 198.66 176 199C180 204.257 180 204.257 180 208C175.507 203.903 172.022 199.286 169 194C169 193.34 169 192.68 169 192Z" fill="#F44C00"/>
<path d="M186 222C187.32 222 188.64 222 190 222C190.66 223.65 191.32 225.3 192 227C189.25 228.473 187.104 229.224 184 230C184.66 227.36 185.32 224.72 186 222Z" fill="#F44C00"/>
<path d="M315 133C315.33 133.66 315.66 134.32 316 135C314.377 136.709 312.707 138.374 311 140C310.34 140 309.68 140 309 140C309 140.66 309 141.32 309 142C307.68 142 306.36 142 305 142C304.67 142.99 304.34 143.98 304 145C303.01 145 302.02 145 301 145C301 144.34 301 143.68 301 143C302.718 141.6 304.501 140.278 306.312 139C307.299 138.299 308.285 137.598 309.301 136.875C311.188 135.564 313.089 134.274 315 133Z" fill="#F44C00"/>
<path d="M181 234C178.032 235.979 175.226 237.259 171.938 238.625C170.874 239.071 169.811 239.517 168.715 239.977C166 241 166 241 164 241C164 240.34 164 239.68 164 239C165.32 239 166.64 239 168 239C168 238.34 168 237.68 168 237C172.622 234.781 175.768 233.617 181 234Z" fill="#F44C00"/>
<path d="M290 226C290.66 226.33 291.32 226.66 292 227C292 227.66 292 228.32 292 229C282.774 233.592 282.774 233.592 277 233C280.214 230.857 283.455 229.519 287 228C287.99 227.34 288.98 226.68 290 226Z" fill="#F44C00"/>
<path d="M239 185C239.66 185.33 240.32 185.66 241 186C239.439 187.106 237.876 188.21 236.312 189.312C235.442 189.927 234.572 190.542 233.676 191.176C231.167 192.886 228.619 194.466 226 196C226.958 192.657 227.675 191.236 230.531 189.164C231.511 188.656 232.491 188.148 233.5 187.625C234.48 187.102 235.459 186.578 236.469 186.039C237.304 185.696 238.139 185.353 239 185Z" fill="#F44C00"/>
<path d="M352 75C354.31 75 356.62 75 359 75C360.461 77.6474 361 78.8945 361 82C360.34 82 359.68 82 359 82C359 83.65 359 85.3 359 87C358.34 87 357.68 87 357 87C357 84.03 357 81.06 357 78C354.525 77.01 354.525 77.01 352 76C352 75.67 352 75.34 352 75Z" fill="#F44C00"/>
<path d="M371 102C371.66 102.33 372.32 102.66 373 103C366.85 110.483 366.85 110.483 363 113C362.34 112.34 361.68 111.68 361 111C362.289 109.684 363.581 108.373 364.875 107.062C365.954 105.966 365.954 105.966 367.055 104.848C369 103 369 103 371 102Z" fill="#F44C00"/>
<path d="M356 87C357.32 87.66 358.64 88.32 360 89C360 90.65 360 92.3 360 94C359.01 93.67 358.02 93.34 357 93C356.67 93.99 356.34 94.98 356 96C355.01 95.67 354.02 95.34 353 95C353.99 92.36 354.98 89.72 356 87Z" fill="#F44C00"/>
<path d="M303 78C307.637 81.2753 311.685 84.3044 315 89C311.09 89 310.186 87.7554 307.312 85.1875C306.504 84.4798 305.696 83.7721 304.863 83.043C303 81 303 81 303 78Z" fill="#F44C00"/>
<path d="M138 211C138.33 211 138.66 211 139 211C139.021 212.258 139.041 213.516 139.062 214.812C139.23 217.017 139.23 217.017 140 219C142.29 220.69 144.214 221.19 147 222C147 222.33 147 222.66 147 223C144.36 223 141.72 223 139 223C137.586 219.2 136.651 216.071 137 212C137.33 211.67 137.66 211.34 138 211Z" fill="#F44C00"/>
<path d="M298 165C298.99 165.33 299.98 165.66 301 166C298.296 169.718 294.297 170.264 290 171C289.01 171 288.02 171 287 171C288.062 169.062 288.062 169.062 290 167C293.625 166.312 293.625 166.312 297 166C297.33 165.67 297.66 165.34 298 165Z" fill="#F44C00"/>
<path d="M320 148C320.66 148.33 321.32 148.66 322 149C322 149.66 322 150.32 322 151C319.021 153.833 316.178 155.875 312.062 156.312C311.042 156.158 311.042 156.158 310 156C310.99 155.67 311.98 155.34 313 155C313.289 154.34 313.577 153.68 313.875 153C315 151 315 151 317.625 150.25C318.409 150.167 319.192 150.085 320 150C320 149.34 320 148.68 320 148Z" fill="#F44C00"/>
<path d="M205 92C206.32 92.33 207.64 92.66 209 93C208.578 93.4821 208.157 93.9642 207.723 94.4609C207.175 95.0926 206.627 95.7242 206.062 96.375C205.517 97.0015 204.972 97.628 204.41 98.2734C202.93 99.9563 202.93 99.9563 202 102C201.01 102 200.02 102 199 102C198.67 102.66 198.34 103.32 198 104C198 101 198 101 199.375 99.5C199.911 99.005 200.447 98.51 201 98C201.66 97.01 202.32 96.02 203 95C203.66 95 204.32 95 205 95C205 94.01 205 93.02 205 92Z" fill="#F44C00"/>
<path d="M278 67C284.755 66.2658 289.185 68.7241 295 72C291.018 73.3275 288.552 71.9991 284.812 70.5625C283.831 70.198 283.831 70.198 282.83 69.8262C281.217 69.2257 279.608 68.6139 278 68C278 67.67 278 67.34 278 67Z" fill="#F44C00"/>
<path d="M290 77C294.108 78.45 297.503 80.3979 301 83C301 83.66 301 84.32 301 85C300.237 84.6906 299.474 84.3812 298.688 84.0625C296.812 83.3211 294.913 82.6377 293 82C293 81.34 293 80.68 293 80C291.68 79.34 290.36 78.68 289 78C289.33 77.67 289.66 77.34 290 77Z" fill="#F44C00"/>
<path d="M286 70C287.812 71.5625 287.812 71.5625 289 73C288.196 72.8144 287.391 72.6288 286.562 72.4375C285.294 72.2209 285.294 72.2209 284 72C283.67 72.33 283.34 72.66 283 73C281.334 73.0406 279.666 73.0427 278 73C278 72.01 278 71.02 278 70C281.35 68.8835 282.673 69.0018 286 70Z" fill="#F44C00"/>
<path d="M299 81C301.25 80.75 301.25 80.75 304 81C306.312 83 306.312 83 308 85C307.34 85 306.68 85 306 85C306 85.66 306 86.32 306 87C301.323 85.5231 301.323 85.5231 299.688 82.875C299.461 82.2563 299.234 81.6375 299 81Z" fill="#F44C00"/>
<path d="M254 215C257.3 215 260.6 215 264 215C264 215.66 264 216.32 264 217C261.043 218.478 258.258 218.06 255 218C254.67 217.01 254.34 216.02 254 215Z" fill="#F44C00"/>
<path d="M325 111C326.65 111 328.3 111 330 111C331.125 115.75 331.125 115.75 330 118C329.34 118 328.68 118 328 118C328 117.01 328 116.02 328 115C327.34 115 326.68 115 326 115C325.67 113.68 325.34 112.36 325 111Z" fill="#F44C00"/>
<path d="M116 215C117.033 217.788 117.045 218.868 116.063 221.75C115.712 222.493 115.361 223.235 115 224C114.34 224 113.68 224 113 224C112.67 225.65 112.34 227.3 112 229C110.796 225.389 111.288 224.759 112.875 221.438C113.244 220.652 113.612 219.867 113.992 219.059C114.656 217.703 115.325 216.35 116 215Z" fill="#F44C00"/>
<path d="M258 184C261.465 185.485 261.465 185.485 265 187C263.68 188.65 262.36 190.3 261 192C258.448 190.724 258.005 189.628 257 187C257.33 186.01 257.66 185.02 258 184Z" fill="#F44C00"/>
<path d="M317 100C317.598 100.309 318.196 100.619 318.812 100.938C321.09 102.102 321.09 102.102 324 103C324.688 105.062 324.688 105.062 325 107C323.68 107.33 322.36 107.66 321 108C319.667 105.333 318.333 102.667 317 100Z" fill="#F44C00"/>
<path d="M175 99C176 102 176 102 175.004 104.262C174.528 105.062 174.053 105.863 173.562 106.688C173.089 107.496 172.616 108.304 172.129 109.137C171.756 109.752 171.384 110.366 171 111C170.67 111 170.34 111 170 111C170.415 105.712 171.352 102.883 175 99Z" fill="#F44C00"/>
<path d="M183 214C183.33 214.99 183.66 215.98 184 217C180.142 219.153 177.449 220.393 173 220C176.2 217.257 179.005 215.37 183 214Z" fill="#F44C00"/>
<path d="M285 157C287.125 157.938 287.125 157.938 289 159C285.797 161.834 283.219 162.521 279 163C282.75 158.125 282.75 158.125 285 157Z" fill="#F44C00"/>
<path d="M325 124C325.33 124.99 325.66 125.98 326 127C324.907 128.033 323.8 129.051 322.688 130.062C322.073 130.631 321.458 131.199 320.824 131.785C320.222 132.186 319.62 132.587 319 133C318.01 132.67 317.02 132.34 316 132C318.97 129.36 321.94 126.72 325 124Z" fill="#F44C00"/>
<path d="M164 181C164.99 181 165.98 181 167 181C168.802 184.83 169.196 187.781 169 192C166.772 189.772 166.308 188.342 165.375 185.375C165.115 184.558 164.854 183.74 164.586 182.898C164.393 182.272 164.199 181.645 164 181Z" fill="#F44C00"/>
<path d="M325 174C325.66 174.33 326.32 174.66 327 175C325.792 179.431 324.483 181.981 321 185C321 181.804 321.547 180.583 323 177.812C323.371 177.097 323.743 176.382 324.125 175.645C324.558 174.83 324.558 174.83 325 174Z" fill="#F44C00"/>
<path d="M301 85C306.662 86.4769 306.662 86.4769 308.375 89.125C308.684 90.0531 308.684 90.0531 309 91C309.66 91 310.32 91 311 91C310.67 91.99 310.34 92.98 310 94C308.497 92.6909 306.998 91.3776 305.5 90.0625C304.665 89.3316 303.829 88.6007 302.969 87.8477C302.319 87.2379 301.669 86.6282 301 86C301 85.67 301 85.34 301 85Z" fill="#F44C00"/>
<path d="M261 193C258.03 194.65 255.06 196.3 252 198C252 196.68 252 195.36 252 194C257.625 191.875 257.625 191.875 261 193Z" fill="#F44C00"/>
<path d="M214 231C221.508 230.631 221.508 230.631 224 232.5C224.495 233.243 224.495 233.243 225 234C223.742 233.876 222.484 233.753 221.188 233.625C220.126 233.521 220.126 233.521 219.043 233.414C217 233 217 233 214 231Z" fill="#F44C00"/>
<path d="M216 217C212.875 219.645 209.912 220.844 206 222C206 221.34 206 220.68 206 220C209.418 217.461 211.758 216.636 216 217Z" fill="#F44C00"/>
<path d="M143 180C143 183.344 142.525 184.068 140.625 186.688C140.184 187.31 139.743 187.933 139.289 188.574C138.864 189.045 138.438 189.515 138 190C137.34 190 136.68 190 136 190C137.668 186.059 140.227 183.211 143 180Z" fill="#F44C00"/>
<path d="M203 183C203.99 183 204.98 183 206 183C209 188.75 209 188.75 209 191C208.34 191 207.68 191 207 191C205.217 188.361 204.009 186.028 203 183Z" fill="#F44C00"/>
<path d="M151 172C151.33 172.99 151.66 173.98 152 175C151.01 175.33 150.02 175.66 149 176C149 176.99 149 177.98 149 179C147.35 179.33 145.7 179.66 144 180C145.616 177.959 147.286 175.959 149 174C149.66 174 150.32 174 151 174C151 173.34 151 172.68 151 172Z" fill="#F44C00"/>
<path d="M283 175C283.66 175.33 284.32 175.66 285 176C280.375 180.875 280.375 180.875 277 182C277 181.01 277 180.02 277 179C280 176.812 280 176.812 283 175Z" fill="#F44C00"/>
<path d="M217 224C217.66 224.33 218.32 224.66 219 225C217.75 226.5 217.75 226.5 216 228C214.68 228 213.36 228 212 228C212 228.66 212 229.32 212 230C211.34 229.67 210.68 229.34 210 229C212.363 226.474 213.665 225.112 217 224Z" fill="#F44C00"/>
<path d="M331 160C331.66 160.33 332.32 160.66 333 161C331.02 165.455 331.02 165.455 329 170C327.808 165.234 328.658 164.121 331 160Z" fill="#F44C00"/>
<path d="M336 146C338.125 146.375 338.125 146.375 340 147C340 148.65 340 150.3 340 152C338 150.667 336 149.333 334 148C334.66 147.34 335.32 146.68 336 146Z" fill="#F44C00"/>
<path d="M375 95C375.33 96.32 375.66 97.64 376 99C374.35 100.32 372.7 101.64 371 103C370.67 102.01 370.34 101.02 370 100C370.99 100 371.98 100 373 100C373.66 98.35 374.32 96.7 375 95Z" fill="#F44C00"/>
<path d="M132 213C133.32 213 134.64 213 136 213C136.33 215.31 136.66 217.62 137 220C135.291 218.377 133.626 216.707 132 215C132 214.34 132 213.68 132 213Z" fill="#F44C00"/>
<path d="M302 144C302 144.99 302 145.98 302 147C299 149 299 149 296.812 148.625C296.214 148.419 295.616 148.213 295 148C297.31 146.68 299.62 145.36 302 144Z" fill="#F44C00"/>
<path d="M325 107C326.938 107.312 326.938 107.312 329 108C329.33 108.99 329.66 109.98 330 111C328.35 111 326.7 111 325 111C324.67 110.34 324.34 109.68 324 109C324.33 108.34 324.66 107.68 325 107Z" fill="#F44C00"/>
<path d="M191 94C191.99 94.66 192.98 95.32 194 96C193.34 97.32 192.68 98.64 192 100C190.35 98.68 188.7 97.36 187 96C188.32 96 189.64 96 191 96C191 95.34 191 94.68 191 94Z" fill="#F44C00"/>
<path d="M211 70C211.33 70.66 211.66 71.32 212 72C208.865 73.8578 206.625 74.2014 203 74C205.395 71.1007 207.312 70.4983 211 70Z" fill="#F44C00"/>
<path d="M325 69C323.938 70.5625 323.938 70.5625 322 72C318.312 71.6875 318.312 71.6875 315 71C318.644 68.5706 320.712 68.8382 325 69Z" fill="#F44C00"/>
</svg>
